<svg width="150" height="151" viewBox="0 0 150 151" fill="none" xmlns="http://www.w3.org/2000/svg">
<path d="M125 143.82H25C16.3844 143.82 9.375 136.811 9.375 128.195V61.9454C9.375 57.1735 11.5125 52.7267 15.2375 49.7454L65.2375 9.74541C70.9844 5.14541 79.0125 5.14541 84.7594 9.74541L134.759 49.7454C138.484 52.7267 140.622 57.1704 140.622 61.9454V128.195C140.622 136.811 133.616 143.82 125 143.82Z" fill="url(#paint0_linear_114_6441)"/>
<path d="M121.875 118.82H28.125C26.4 118.82 25 117.42 25 115.695V28.1953C25 23.0266 29.2062 18.8203 34.375 18.8203H115.625C120.794 18.8203 125 23.0266 125 28.1953V115.695C125 117.42 123.6 118.82 121.875 118.82Z" fill="url(#paint1_linear_114_6441)"/>
<path d="M87.875 74.6298C89.3531 73.7392 89.8313 71.8204 88.9406 70.3392C88.0469 68.8579 86.125 68.386 84.65 69.2735C81.7469 71.0235 78.4094 71.9454 74.9969 71.9454C64.6563 71.9454 56.2469 63.536 56.2469 53.1954C56.2469 42.8548 64.6563 34.4454 74.9969 34.4454C85.3375 34.4454 93.7469 42.8548 93.7469 53.2829C93.7313 56.6235 90.7188 59.4485 87.1656 59.4485C86.3469 59.4485 85.5844 59.1204 85.0187 58.5267C84.4562 57.9329 84.1688 57.1579 84.2125 56.336L84.6875 47.2735C84.775 45.5704 84.1531 43.8829 82.9781 42.6454C81.8031 41.4079 80.1531 40.6985 78.4469 40.6985H77.0531C69.3875 40.6985 62.8219 46.9267 62.4219 54.6079C62.2688 57.5485 63.2844 60.3267 65.2844 62.4329C67.2813 64.5392 70.0031 65.6985 72.9469 65.6985C75.7906 65.6985 78.4219 64.5735 80.4438 62.7704C80.4594 62.7892 80.4719 62.811 80.4875 62.8298C82.2156 64.6517 84.65 65.6985 87.1656 65.7017C94.2094 65.7017 99.9688 60.1454 100 53.2017C100 39.4173 88.7844 28.2017 75 28.2017C61.2156 28.2017 50 39.4173 50 53.2017C50 66.986 61.2156 78.2017 75 78.2017C79.5469 78.2017 84 76.9673 87.875 74.636V74.6298ZM78.0469 54.5954V54.6079C77.9063 57.2298 75.5719 59.4423 72.9469 59.4423C71.7344 59.4423 70.6219 58.9735 69.8187 58.1267C69.0125 57.2767 68.6031 56.1423 68.6656 54.9048C68.8906 50.5892 72.7344 46.9454 77.0563 46.9454H78.45L78.0469 54.5954Z" fill="url(#paint2_linear_114_6441)"/>
<path d="M84.7656 99.7954C79.1031 104.33 70.8906 104.33 65.2344 99.7954L10.55 56.0422C9.79687 57.8922 9.375 59.8829 9.375 61.9454V128.195C9.375 136.811 16.3844 143.82 25 143.82H125C133.616 143.82 140.625 136.811 140.625 128.195V61.9454C140.625 59.8829 140.203 57.8922 139.45 56.0422L84.7656 99.7954Z" fill="url(#paint3_linear_114_6441)"/>
<path d="M84.7656 91.3827C79.1031 86.8483 70.8906 86.8483 65.2344 91.3827L10.9156 134.842C13.4219 140.13 18.7719 143.82 25 143.82H125C131.228 143.82 136.578 140.13 139.084 134.842L84.7656 91.3827Z" fill="url(#paint4_linear_114_6441)"/>
<defs>
<linearGradient id="paint0_linear_114_6441" x1="75" y1="13.4267" x2="75" y2="95.5235" gradientUnits="userSpaceOnUse">
<stop stop-color="#FD9B02"/>
<stop offset="1" stop-color="#FF7302"/>
</linearGradient>
<linearGradient id="paint1_linear_114_6441" x1="75" y1="19.1578" x2="75" y2="96.5766" gradientUnits="userSpaceOnUse">
<stop stop-color="#EDF1F2"/>
<stop offset="0.336" stop-color="#E9EDEE"/>
<stop offset="0.636" stop-color="#DEE2E3"/>
<stop offset="0.921" stop-color="#CCD1D2"/>
<stop offset="1" stop-color="#C6CBCC"/>
</linearGradient>
<linearGradient id="paint2_linear_114_6441" x1="52.3594" y1="30.5548" x2="92.9875" y2="71.1829" gradientUnits="userSpaceOnUse">
<stop stop-color="#4793EB"/>
<stop offset="1" stop-color="#2367EC"/>
</linearGradient>
<linearGradient id="paint3_linear_114_6441" x1="-19.9125" y1="-11.9796" x2="107.634" y2="132.767" gradientUnits="userSpaceOnUse">
<stop stop-color="#FED200"/>
<stop offset="1" stop-color="#F59815"/>
</linearGradient>
<linearGradient id="paint4_linear_114_6441" x1="48.3219" y1="89.9858" x2="110.663" y2="194.961" gradientUnits="userSpaceOnUse">
<stop stop-color="#FED200"/>
<stop offset="1" stop-color="#F59815"/>
</linearGradient>
</defs>
</svg>
