<svg width="140" height="140" viewBox="0 0 140 140" fill="none" xmlns="http://www.w3.org/2000/svg">
<path d="M32.9293 19.6598C28.087 22.817 23.9553 26.9753 20.8265 31.8398C20.1229 32.9338 18.4989 32.9307 17.7994 31.8344C14.6884 26.9585 10.5721 22.7851 5.74133 19.6104C4.66909 18.9058 4.67211 17.3034 5.74682 16.6026C10.5892 13.4455 14.7205 9.28721 17.8494 4.42262C18.553 3.3287 20.1767 3.33172 20.8764 4.42811C23.9874 9.30396 28.104 13.4773 32.9348 16.652C34.0071 17.3567 34.004 18.959 32.9293 19.6598Z" fill="url(#paint0_linear_119_10003)"/>
<path d="M90.129 123.116C85.3764 126.214 81.3214 130.296 78.2505 135.07C77.5598 136.143 75.9663 136.14 75.2794 135.064C72.2261 130.279 68.1861 126.183 63.4448 123.067C62.3923 122.376 62.3953 120.803 63.4503 120.115C68.2028 117.017 72.2576 112.936 75.3286 108.161C76.019 107.088 77.6128 107.09 78.2996 108.167C81.353 112.952 85.3932 117.048 90.1345 120.164C91.1867 120.855 91.184 122.428 90.129 123.116Z" fill="url(#paint1_linear_119_10003)"/>
<path d="M104.284 15.9202C100.569 18.3419 97.4 21.5317 94.9999 25.2634C94.4602 26.1026 93.2145 26.1001 92.6778 25.2593C90.2915 21.5191 87.1338 18.3178 83.4282 15.8826C82.6058 15.3421 82.608 14.1128 83.4324 13.5753C87.1467 11.1536 90.316 7.9638 92.716 4.23239C93.2557 3.39321 94.5014 3.39541 95.0381 4.23651C97.4247 7.9767 100.582 11.178 104.288 13.6132C105.111 14.1537 105.108 15.3827 104.284 15.9202Z" fill="url(#paint2_linear_119_10003)"/>
<path d="M106.895 129.286C104.246 131.013 101.986 133.287 100.275 135.948C99.8902 136.547 99.0021 136.545 98.6195 135.945C96.9178 133.278 94.6662 130.996 92.0241 129.259C91.4377 128.874 91.4391 127.997 92.0271 127.614C94.6756 125.887 96.9356 123.613 98.6469 120.952C99.0318 120.354 99.9198 120.355 100.302 120.955C102.004 123.622 104.256 125.905 106.898 127.641C107.484 128.026 107.483 128.903 106.895 129.286Z" fill="url(#paint3_linear_119_10003)"/>
<path d="M28.9552 125.903C25.2408 128.324 22.0713 131.514 19.6713 135.246C19.1316 136.085 17.8859 136.082 17.3492 135.241C14.9629 131.501 11.8052 128.3 8.09962 125.865C7.27719 125.324 7.27938 124.095 8.10374 123.557C11.8181 121.136 14.9873 117.946 17.3874 114.214C17.9271 113.375 19.1728 113.377 19.7095 114.219C22.0961 117.959 25.2537 121.16 28.9593 123.595C29.7818 124.136 29.7796 125.365 28.9552 125.903Z" fill="url(#paint4_linear_119_10003)"/>
<path d="M12.0599 80.0814C25.1378 69.9583 67.3009 40.6066 127.022 31.4198C129.398 31.0545 131.313 33.3466 130.535 35.6207L123.423 56.3925C122.527 59.0097 120.285 60.9318 117.565 61.4339C68.5557 70.4785 32.6666 100.09 21.6151 110.168C19.912 111.721 17.1773 111.022 16.4307 108.841L9.50232 88.6055C8.44216 85.509 9.47185 82.0845 12.0599 80.0814Z" fill="url(#paint5_linear_119_10003)"/>
<path d="M36.2783 58.6795L27.119 31.3811C18.6833 32.8058 10.2973 34.7851 2.00111 37.321C-0.0503029 37.948 -0.682499 40.544 0.850913 42.0439L8.61048 49.6347C9.22374 50.2347 9.53119 51.0808 9.44582 51.9345L8.19103 64.5029C7.99146 66.5025 9.8864 68.0697 11.8099 67.4882C19.1547 65.2677 26.5714 63.566 34.026 62.381C35.7612 62.1056 36.8372 60.3452 36.2783 58.6795Z" fill="url(#paint6_linear_119_10003)"/>
<path d="M36.2783 58.6795L35.3699 55.9725C35.3699 55.9725 28.3625 56.5647 20.7095 59.531C20.7095 59.531 32.2315 62.0604 34.0257 62.3815C35.7611 62.1056 36.8372 60.3452 36.2783 58.6795Z" fill="url(#paint7_linear_119_10003)"/>
<path d="M127.639 29.2163C89.8295 17.6735 50.1705 17.6738 12.3615 29.2163C9.84311 29.9853 8.46068 32.687 9.31358 35.1779C11.7348 42.2495 14.1559 49.3212 16.5771 56.3925C17.3864 58.7563 19.919 60.0614 22.3116 59.3413C53.6708 49.9056 86.3289 49.9062 117.688 59.3413C120.081 60.0611 122.614 58.7561 123.423 56.3923C125.844 49.3206 128.265 42.249 130.686 35.1773C131.539 32.687 130.157 29.985 127.639 29.2163Z" fill="url(#paint8_linear_119_10003)"/>
<path d="M103.722 111.573L112.881 84.2742C121.317 85.6989 129.703 87.6782 137.999 90.2141C140.05 90.8411 140.682 93.4371 139.149 94.937L131.389 102.528C130.776 103.128 130.469 103.974 130.554 104.828L131.809 117.396C132.008 119.396 130.114 120.963 128.19 120.381C120.845 118.161 113.429 116.459 105.974 115.274C104.239 114.999 103.163 113.238 103.722 111.573Z" fill="url(#paint9_linear_119_10003)"/>
<path d="M103.722 111.573L112.881 84.2742C121.317 85.6989 129.703 87.6782 137.999 90.2141C140.05 90.8411 140.682 93.4371 139.149 94.937L131.389 102.528C130.776 103.128 130.469 103.974 130.554 104.828L131.809 117.396C132.008 119.396 130.114 120.963 128.19 120.381C120.845 118.161 113.429 116.459 105.974 115.274C104.239 114.999 103.163 113.238 103.722 111.573Z" fill="url(#paint10_linear_119_10003)"/>
<path d="M103.722 111.573L104.63 108.866C104.63 108.866 111.637 109.458 119.29 112.424C119.29 112.424 107.768 114.953 105.974 115.275C104.239 114.998 103.163 113.238 103.722 111.573Z" fill="url(#paint11_linear_119_10003)"/>
<path d="M58.7433 101.051H51.8276C50.5917 101.051 49.4992 101.824 49.0534 102.976C47.7453 106.359 45.0711 109.067 41.71 110.419C40.5798 110.873 39.8298 111.957 39.8298 113.175V120.119C39.8298 122.061 41.6718 123.494 43.5461 122.985C52.3618 120.59 59.3019 113.594 61.6158 104.745C62.1044 102.875 60.6756 101.051 58.7433 101.051Z" fill="url(#paint12_linear_119_10003)"/>
<path d="M127.639 82.0919C89.8295 70.549 50.1705 70.5493 12.3615 82.0919C9.84311 82.8608 8.46068 85.5625 9.31358 88.0537C11.7348 95.1253 14.1559 102.197 16.5771 109.268C17.3864 111.632 19.919 112.937 22.3116 112.217C53.6708 102.782 86.3289 102.782 117.688 112.217C120.081 112.937 122.614 111.632 123.423 109.268C125.844 102.196 128.265 95.1248 130.686 88.0534C131.539 85.5625 130.157 82.8608 127.639 82.0919Z" fill="url(#paint13_linear_119_10003)"/>
<path d="M27.2159 101.587C25.1461 99.3767 23.0557 97.2091 20.9244 95.0627L22.9956 102.637C23.1905 103.35 22.4361 103.959 21.5863 104.221C20.7364 104.484 19.7838 104.402 19.5747 103.693C18.1914 99.0069 16.8081 94.3208 15.4246 89.6346C15.2088 88.9041 16.0398 88.2744 16.9707 87.987C18.3075 87.5741 18.8488 87.536 20.1874 88.9016C22.0782 90.8106 23.9352 92.767 25.7465 94.758C25.1206 92.2153 24.4947 89.6725 23.8685 87.1297C23.6863 86.3893 24.5471 85.8244 25.487 85.5839C26.427 85.3435 27.4399 85.4288 27.6074 86.173C28.6832 90.9536 29.7592 95.7345 30.835 100.515C30.9976 101.237 30.219 101.808 29.3609 102.027C28.5692 102.231 27.8297 102.26 27.2159 101.587Z" fill="url(#paint14_linear_119_10003)"/>
<path d="M35.0784 90.6039C36.4825 90.3143 37.1858 90.177 38.5938 89.9168C39.2979 89.7867 39.8057 90.3788 39.9254 91.1095C40.0264 91.7258 39.8222 92.5128 39.0591 92.6536C37.6717 92.9098 36.9791 93.0454 35.5958 93.3303C35.889 94.8755 36.0359 95.648 36.3291 97.1932C38.748 96.6944 39.9608 96.468 42.3913 96.0598C43.0716 95.9456 43.5662 96.6167 43.692 97.4636C43.8007 98.1963 43.6074 99.0461 42.8723 99.1697C40.2287 99.6067 37.5847 100.118 34.9664 100.698C34.214 100.863 33.3863 100.673 33.234 99.9485C32.2257 95.1596 31.2171 90.3708 30.2089 85.582C30.0565 84.8581 30.8034 84.308 31.6275 84.1276C34.511 83.5223 37.3873 82.9665 40.2875 82.4537C41.0929 82.3183 41.5538 83.0658 41.6628 83.7985C41.7885 84.6454 41.4887 85.4428 40.7684 85.5636C38.1949 85.9957 36.9107 86.2359 34.3496 86.7638C34.6411 88.2999 34.7869 89.0677 35.0784 90.6039Z" fill="url(#paint15_linear_119_10003)"/>
<path d="M60.2095 96.1339C59.9828 96.9593 58.9959 97.4139 57.9638 97.49C56.9544 97.5643 55.8476 97.2646 55.6019 96.4726C54.9557 94.3257 54.6255 93.2537 53.9507 91.1128C53.6584 93.3457 53.5192 94.4621 53.2559 96.6953C53.1513 97.5204 52.1145 98.0236 51.1079 98.1405C50.0787 98.2602 49.0054 98.0016 48.6612 97.2297C46.5733 92.7418 44.4055 88.3071 42.1504 83.9078C42.116 83.843 42.0751 83.7323 42.0584 83.6176C41.9445 82.8394 43.219 81.9826 44.3198 81.8234C44.907 81.7386 45.4203 81.8544 45.6278 82.3164C47.3386 86.0734 48.9961 89.849 50.6047 93.6545C50.9286 90.9876 51.2814 88.3227 51.6621 85.6641C51.7456 85.0267 52.5576 84.6163 53.3764 84.5386C54.1956 84.4609 55.0649 84.7118 55.2571 85.3229C56.0924 87.8659 56.9011 90.4208 57.6813 92.9828C58.6023 88.9371 59.5762 84.9116 60.6056 80.8945C60.7295 80.4012 61.2134 80.1904 61.8042 80.1632C62.9124 80.1127 64.3107 80.7152 64.3335 81.5022C64.3368 81.6181 64.3159 81.7347 64.2934 81.805C62.8424 86.5571 61.4824 91.3269 60.2095 96.1339Z" fill="url(#paint16_linear_119_10003)"/>
<path d="M74.4 90.0414C74.4033 89.9028 74.3591 89.7856 74.3141 89.7147C72.7513 87.0092 71.1278 84.342 69.4462 81.7153C69.397 81.6227 69.3968 81.5302 69.3965 81.4605C69.394 80.6035 70.9444 79.9765 72.0041 79.9886C72.6201 79.9957 72.8391 80.2315 73.1021 80.6762C74.4384 83.0812 75.0854 84.2902 76.3369 86.719C77.7405 84.3882 78.463 83.2295 79.9497 80.928C80.2177 80.5022 80.4765 80.2845 81.0917 80.3229C82.1499 80.3888 83.6551 81.1281 83.5947 81.9826C83.5897 82.0521 83.5832 82.1443 83.528 82.233C81.6959 84.75 79.9102 87.282 78.1525 89.8558C78.1028 89.9231 78.0507 90.0367 78.0446 90.1754C77.9428 92.4986 77.892 93.66 77.7902 95.9832C77.7578 96.7238 76.8648 97.0521 75.988 97.0197C75.1112 96.9873 74.2432 96.5942 74.2611 95.8531C74.316 93.5285 74.344 92.3662 74.4 90.0414Z" fill="url(#paint17_linear_119_10003)"/>
<path d="M88.2909 88.0172C89.7101 88.1687 90.4191 88.2516 91.8356 88.4325C92.5438 88.5228 92.8626 89.2442 92.7717 89.9791C92.6951 90.5992 92.2787 91.2893 91.5111 91.1913C90.1155 91.0132 89.4169 90.9314 88.0188 90.782C87.8648 92.3489 87.7877 93.1324 87.6337 94.6993C90.0782 94.9601 91.2989 95.1133 93.7355 95.4646C94.4174 95.5629 94.7015 96.3557 94.5837 97.2039C94.4819 97.9377 94.058 98.6912 93.321 98.585C90.6772 98.1966 88.0122 97.8787 85.3528 97.6344C84.5902 97.5622 83.8564 97.1282 83.9143 96.3892C84.297 91.5026 84.68 86.6161 85.0626 81.7295C85.1205 80.9908 85.985 80.6927 86.82 80.7715C89.7397 81.0726 92.6388 81.4185 95.5484 81.8127C96.3557 81.9291 96.5863 82.7845 96.4844 83.5182C96.3667 84.3662 95.8558 85.0374 95.1338 84.9331C92.5537 84.5608 91.2611 84.3989 88.6727 84.1224C88.5206 85.6806 88.444 86.4593 88.2909 88.0172Z" fill="url(#paint18_linear_119_10003)"/>
<path d="M94.9798 97.3343C94.9894 97.2657 95.0249 97.1776 95.0605 97.0892C97.1479 92.6364 99.3097 88.2335 101.553 83.8641C101.952 83.1133 103.115 82.925 104.235 83.1427C105.354 83.3607 106.375 83.9739 106.488 84.8241C107.077 89.7452 107.58 94.6672 107.996 99.6073C107.998 99.7031 108.001 99.7986 107.986 99.8664C107.804 100.702 106.413 101.017 105.462 100.805C104.909 100.683 104.502 100.406 104.463 99.901C104.385 98.7016 104.344 98.1021 104.256 96.9022C102.348 96.502 101.392 96.3159 99.4763 95.9722C98.9789 97.0582 98.7327 97.6017 98.2449 98.6909C98.0335 99.1475 97.5597 99.2526 97.0027 99.1593C96.0441 98.9984 94.8601 98.1823 94.9798 97.3343ZM104.024 94.0199C103.813 91.4461 103.696 90.1586 103.439 87.5826C102.308 89.8885 101.753 91.0453 100.666 93.3666C102.011 93.6144 102.683 93.7451 104.024 94.0199Z" fill="url(#paint19_linear_119_10003)"/>
<path d="M112.43 86.1975C112.557 85.6336 113.128 85.2493 113.827 85.4255C115.824 85.929 116.82 86.195 118.807 86.7564C121.777 87.5887 124.334 89.7784 123.293 93.2655C122.556 95.7326 120.983 96.7872 119.225 96.9088C119.788 99.2098 120.053 100.361 120.551 102.662C120.6 102.823 120.576 102.985 120.543 103.095C120.288 103.959 118.884 104.528 117.882 104.221C117.446 104.088 117.081 103.786 116.969 103.246C116.419 100.519 116.122 99.1546 115.485 96.4268C114.885 96.2602 114.584 96.1781 113.982 96.0169C113.449 98.1795 113.182 99.2608 112.649 101.423C112.472 102.142 111.527 102.271 110.669 102.051C109.81 101.831 109.032 101.259 109.195 100.538C110.273 95.7575 111.352 90.9775 112.43 86.1975ZM115.676 89.1525C115.264 90.8216 115.059 91.6561 114.647 93.3251C115.563 93.5705 116.02 93.6965 116.933 93.9546C118.225 94.3197 119.147 94.0421 119.572 92.4824C119.997 90.9229 119.337 90.1702 118.016 89.7966C117.081 89.5325 116.613 89.4035 115.676 89.1525Z" fill="url(#paint20_linear_119_10003)"/>
<path d="M43.6844 39.4287C41.7535 39.6579 40.7889 39.7833 38.8621 40.0548C39.2173 42.5765 39.3952 43.8373 39.7504 46.3592C39.8553 47.104 38.9955 47.6047 38.0839 47.7411C37.1722 47.8775 36.2029 47.6505 36.0854 46.9077C35.3064 41.9882 34.527 37.069 33.748 32.1495C33.6267 31.3836 34.5583 30.9029 35.5425 30.7558C36.5266 30.6087 37.5574 30.7956 37.6655 31.5631C37.9867 33.8432 38.1473 34.983 38.4687 37.2628C40.42 36.9877 41.3967 36.8609 43.352 36.6287C43.0805 34.3423 42.9446 33.1992 42.6731 30.9128C42.5817 30.1428 43.5301 29.6989 44.5178 29.5902C45.5058 29.4815 46.5272 29.7083 46.6058 30.4796C47.1087 35.4351 47.6113 40.3903 48.1142 45.3454C48.1902 46.0935 47.3123 46.5604 46.3974 46.6612C45.4825 46.7619 44.5239 46.4973 44.4352 45.7506C44.1349 43.2221 43.9847 41.9574 43.6844 39.4287Z" fill="url(#paint21_linear_119_10003)"/>
<path d="M49.4477 44.8373C49.4411 44.7671 49.4556 44.6715 49.4707 44.5755C50.5122 39.6683 51.6265 34.784 52.8156 29.9106C53.0328 29.07 54.1478 28.588 55.3172 28.5142C56.4867 28.4403 57.653 28.7782 57.9742 29.585C59.7745 34.2695 61.5014 38.9749 63.1581 43.7121C63.1847 43.8054 63.2116 43.8985 63.2138 43.9691C63.241 44.8382 61.9178 45.5159 60.9052 45.5585C60.3163 45.5834 59.837 45.4182 59.6718 44.932C59.2943 43.7739 59.1036 43.1955 58.7176 42.039C56.6972 42.143 55.6873 42.2067 53.6691 42.3574C53.4314 43.5532 53.3147 44.1511 53.0858 45.3474C52.9828 45.8505 52.5277 46.0748 51.94 46.1242C50.9289 46.2088 49.53 45.7026 49.4477 44.8373ZM57.7719 39.2656C56.9253 36.7898 56.4921 35.554 55.6058 33.0864C55.0367 35.6456 54.7622 36.9265 54.2338 39.4888C55.6486 39.3883 56.3563 39.3436 57.7719 39.2656Z" fill="url(#paint22_linear_119_10003)"/>
<path d="M64.2268 29.3682C64.2123 28.781 64.7844 28.2487 65.6749 28.2322C67.7815 28.193 68.8348 28.1853 70.9416 28.1938C74.2937 28.2193 76.927 30.1354 76.7843 33.6966C76.7829 33.7436 76.7821 33.7672 76.7807 33.8138C76.6918 37.3597 73.9947 39.1665 70.6548 39.1643C69.6945 39.1616 69.2147 39.1627 68.2544 39.1701C68.2704 41.2001 68.2783 42.2149 68.2945 44.2447C68.3006 44.9965 67.3842 45.3798 66.4652 45.3949C65.5461 45.41 64.618 45.0572 64.5991 44.3053C64.475 39.3265 64.3509 34.3472 64.2268 29.3682ZM68.1932 31.3943C68.2089 33.3771 68.2166 34.3686 68.2322 36.3514C69.2045 36.3437 69.6907 36.3426 70.663 36.3454C72.038 36.3495 72.8821 35.6111 72.9027 34.0134C72.9041 33.9102 72.9046 33.8583 72.906 33.7551C72.9263 32.1574 72.083 31.3921 70.6775 31.388C69.6838 31.3853 69.187 31.3864 68.1932 31.3943Z" fill="url(#paint23_linear_119_10003)"/>
<path d="M78.6337 29.4571C78.6557 28.8702 79.2599 28.3744 80.1496 28.4134C82.2548 28.5054 83.3073 28.5633 85.4105 28.7027C88.7549 28.9366 91.268 31.0111 90.9043 34.5586C90.8999 34.6053 90.8977 34.6289 90.8936 34.6755C90.584 38.2104 87.7763 39.8443 84.4423 39.6345C83.4838 39.572 83.0045 39.5434 82.0453 39.4913C81.9353 41.5182 81.8801 42.5317 81.77 44.5584C81.7291 45.3092 80.7905 45.6348 79.8723 45.5925C78.9538 45.5505 78.0493 45.1407 78.0773 44.3891C78.2626 39.4116 78.4482 34.4345 78.6337 29.4571ZM82.4675 31.7259C82.3599 33.706 82.3061 34.6958 82.1985 36.6759C83.1697 36.7286 83.6553 36.7577 84.626 36.8211C85.9988 36.9106 86.888 36.2262 87.0076 34.633C87.0153 34.53 87.0192 34.4784 87.0271 34.3752C87.1468 32.782 86.3518 31.9658 84.9488 31.8742C83.9562 31.8096 83.4602 31.78 82.4675 31.7259Z" fill="url(#paint24_linear_119_10003)"/>
<path d="M95.9454 39.858C95.9618 39.7183 95.927 39.5956 95.8866 39.5201C94.4976 36.6479 93.0776 33.804 91.6169 30.9677C91.5754 30.8694 91.5842 30.7758 91.5908 30.7058C91.6721 29.8403 93.3285 29.3616 94.418 29.4763C95.0515 29.543 95.2544 29.8022 95.4834 30.2765C96.6325 32.8333 97.1883 34.1152 98.2619 36.6847C99.9296 34.4606 100.781 33.3557 102.52 31.1623C102.834 30.7561 103.12 30.559 103.751 30.6515C104.836 30.8104 106.326 31.6856 106.19 32.5442C106.179 32.614 106.164 32.7065 106.099 32.7916C103.987 35.1779 101.912 37.5815 99.8607 40.0208C99.8025 40.0842 99.7385 40.1943 99.7199 40.3337C99.405 42.6714 99.2477 43.8403 98.9328 46.178C98.8324 46.9233 97.8694 47.1729 96.9556 47.0578C96.042 46.9428 95.1712 46.4622 95.2588 45.7152C95.5333 43.372 95.6706 42.2007 95.9454 39.858Z" fill="url(#paint25_linear_119_10003)"/>
<path d="M112.511 6.77545V13.6912C112.511 14.927 113.283 16.0196 114.436 16.4654C117.819 17.7734 120.526 20.4477 121.878 23.8088C122.333 24.9389 123.416 25.6889 124.635 25.6889H131.578C133.521 25.6889 134.954 23.8469 134.444 21.9726C132.049 13.157 125.053 6.21682 116.204 3.90298C114.335 3.41435 112.511 4.84317 112.511 6.77545Z" fill="url(#paint26_linear_119_10003)"/>
<defs>
<linearGradient id="paint0_linear_119_10003" x1="14.647" y1="11.8433" x2="29.889" y2="32.2504" gradientUnits="userSpaceOnUse">
<stop stop-color="#FF819C"/>
<stop offset="0.2594" stop-color="#FF7E9A"/>
<stop offset="0.4757" stop-color="#FE7396"/>
<stop offset="0.6765" stop-color="#FC628E"/>
<stop offset="0.8668" stop-color="#FA4A83"/>
<stop offset="1" stop-color="#F83479"/>
</linearGradient>
<linearGradient id="paint1_linear_119_10003" x1="72.1651" y1="115.456" x2="87.1243" y2="135.485" gradientUnits="userSpaceOnUse">
<stop stop-color="#00ADFB"/>
<stop offset="1" stop-color="#3F3CED"/>
</linearGradient>
<linearGradient id="paint2_linear_119_10003" x1="90.2616" y1="9.93895" x2="101.953" y2="25.593" gradientUnits="userSpaceOnUse">
<stop stop-color="#92F37F"/>
<stop offset="1" stop-color="#4AB272"/>
</linearGradient>
<linearGradient id="paint3_linear_119_10003" x1="96.8751" y1="125.026" x2="105.212" y2="136.188" gradientUnits="userSpaceOnUse">
<stop stop-color="#FFD945"/>
<stop offset="0.3043" stop-color="#FFCD3E"/>
<stop offset="0.8558" stop-color="#FFAD2B"/>
<stop offset="1" stop-color="#FFA325"/>
</linearGradient>
<linearGradient id="paint4_linear_119_10003" x1="14.9107" y1="119.906" x2="26.6026" y2="135.56" gradientUnits="userSpaceOnUse">
<stop stop-color="#9B62CD"/>
<stop offset="0.3003" stop-color="#985DCB"/>
<stop offset="0.6716" stop-color="#8F4EC7"/>
<stop offset="1" stop-color="#833AC1"/>
</linearGradient>
<linearGradient id="paint5_linear_119_10003" x1="69.9005" y1="72.5236" x2="69.9005" y2="52.2488" gradientUnits="userSpaceOnUse">
<stop stop-color="#FFD945"/>
<stop offset="0.3043" stop-color="#FFCD3E"/>
<stop offset="0.8558" stop-color="#FFAD2B"/>
<stop offset="1" stop-color="#FFA325"/>
</linearGradient>
<linearGradient id="paint6_linear_119_10003" x1="8.21299" y1="52.6883" x2="15.1402" y2="50.6833" gradientUnits="userSpaceOnUse">
<stop stop-color="#FF7044"/>
<stop offset="1" stop-color="#F82814"/>
</linearGradient>
<linearGradient id="paint7_linear_119_10003" x1="27.3608" y1="56.843" x2="34.0916" y2="65.8511" gradientUnits="userSpaceOnUse">
<stop stop-color="#FFD945"/>
<stop offset="0.3043" stop-color="#FFCD3E"/>
<stop offset="0.8558" stop-color="#FFAD2B"/>
<stop offset="1" stop-color="#FFA325"/>
</linearGradient>
<linearGradient id="paint8_linear_119_10003" x1="66.4896" y1="19.9794" x2="77.4272" y2="62.6357" gradientUnits="userSpaceOnUse">
<stop stop-color="#FF7044"/>
<stop offset="1" stop-color="#F82814"/>
</linearGradient>
<linearGradient id="paint9_linear_119_10003" x1="134.354" y1="107.548" x2="123.963" y2="103.537" gradientUnits="userSpaceOnUse">
<stop stop-color="#FF7044"/>
<stop offset="1" stop-color="#F82814"/>
</linearGradient>
<linearGradient id="paint10_linear_119_10003" x1="134.354" y1="107.548" x2="123.963" y2="103.537" gradientUnits="userSpaceOnUse">
<stop stop-color="#F82814" stop-opacity="0"/>
<stop offset="1" stop-color="#C0272D"/>
</linearGradient>
<linearGradient id="paint11_linear_119_10003" x1="112.639" y1="109.736" x2="105.909" y2="118.744" gradientUnits="userSpaceOnUse">
<stop stop-color="#FFD945"/>
<stop offset="0.3043" stop-color="#FFCD3E"/>
<stop offset="0.8558" stop-color="#FFAD2B"/>
<stop offset="1" stop-color="#FFA325"/>
</linearGradient>
<linearGradient id="paint12_linear_119_10003" x1="47.4137" y1="108.397" x2="58.6774" y2="120.72" gradientUnits="userSpaceOnUse">
<stop stop-color="#92F37F"/>
<stop offset="1" stop-color="#4AB272"/>
</linearGradient>
<linearGradient id="paint13_linear_119_10003" x1="66.755" y1="66.5247" x2="76.4164" y2="126.134" gradientUnits="userSpaceOnUse">
<stop stop-color="#FF7044"/>
<stop offset="1" stop-color="#F82814"/>
</linearGradient>
<linearGradient id="paint14_linear_119_10003" x1="23.1238" y1="87.9195" x2="23.1238" y2="118.925" gradientUnits="userSpaceOnUse">
<stop stop-color="#F8F6FB"/>
<stop offset="1" stop-color="#EFDCFB"/>
</linearGradient>
<linearGradient id="paint15_linear_119_10003" x1="36.9547" y1="84.8175" x2="36.9547" y2="114.874" gradientUnits="userSpaceOnUse">
<stop stop-color="#F8F6FB"/>
<stop offset="1" stop-color="#EFDCFB"/>
</linearGradient>
<linearGradient id="paint16_linear_119_10003" x1="53.1922" y1="82.4814" x2="53.1922" y2="111.792" gradientUnits="userSpaceOnUse">
<stop stop-color="#F8F6FB"/>
<stop offset="1" stop-color="#EFDCFB"/>
</linearGradient>
<linearGradient id="paint17_linear_119_10003" x1="76.4961" y1="82.2017" x2="76.4961" y2="110.154" gradientUnits="userSpaceOnUse">
<stop stop-color="#F8F6FB"/>
<stop offset="1" stop-color="#EFDCFB"/>
</linearGradient>
<linearGradient id="paint18_linear_119_10003" x1="90.2097" y1="83.0768" x2="90.2097" y2="112.346" gradientUnits="userSpaceOnUse">
<stop stop-color="#F8F6FB"/>
<stop offset="1" stop-color="#EFDCFB"/>
</linearGradient>
<linearGradient id="paint19_linear_119_10003" x1="101.485" y1="85.4983" x2="101.485" y2="114.489" gradientUnits="userSpaceOnUse">
<stop stop-color="#F8F6FB"/>
<stop offset="1" stop-color="#EFDCFB"/>
</linearGradient>
<linearGradient id="paint20_linear_119_10003" x1="116.352" y1="87.8209" x2="116.352" y2="118.621" gradientUnits="userSpaceOnUse">
<stop stop-color="#F8F6FB"/>
<stop offset="1" stop-color="#EFDCFB"/>
</linearGradient>
<linearGradient id="paint21_linear_119_10003" x1="40.9281" y1="32.5253" x2="40.9281" y2="45.7243" gradientUnits="userSpaceOnUse">
<stop stop-color="#F8F6FB"/>
<stop offset="1" stop-color="#EFDCFB"/>
</linearGradient>
<linearGradient id="paint22_linear_119_10003" x1="56.3299" y1="31.4898" x2="56.3299" y2="44.1609" gradientUnits="userSpaceOnUse">
<stop stop-color="#F8F6FB"/>
<stop offset="1" stop-color="#EFDCFB"/>
</linearGradient>
<linearGradient id="paint23_linear_119_10003" x1="70.5082" y1="30.9872" x2="70.5082" y2="43.4552" gradientUnits="userSpaceOnUse">
<stop stop-color="#F8F6FB"/>
<stop offset="1" stop-color="#EFDCFB"/>
</linearGradient>
<linearGradient id="paint24_linear_119_10003" x1="84.508" y1="31.2043" x2="84.508" y2="43.6578" gradientUnits="userSpaceOnUse">
<stop stop-color="#F8F6FB"/>
<stop offset="1" stop-color="#EFDCFB"/>
</linearGradient>
<linearGradient id="paint25_linear_119_10003" x1="98.8917" y1="32.3238" x2="98.8917" y2="45.0962" gradientUnits="userSpaceOnUse">
<stop stop-color="#F8F6FB"/>
<stop offset="1" stop-color="#EFDCFB"/>
</linearGradient>
<linearGradient id="paint26_linear_119_10003" x1="119.856" y1="18.105" x2="132.179" y2="6.84133" gradientUnits="userSpaceOnUse">
<stop stop-color="#9B62CD"/>
<stop offset="0.3003" stop-color="#985DCB"/>
<stop offset="0.6716" stop-color="#8F4EC7"/>
<stop offset="1" stop-color="#833AC1"/>
</linearGradient>
</defs>
</svg>
