<svg width="320" height="465" viewBox="0 0 320 465" fill="none" xmlns="http://www.w3.org/2000/svg">
<g clip-path="url(#clip0_12_21)">
<path d="M109.565 45.6792C109.565 45.4244 109.565 45.1696 109.588 44.9187C109.606 44.43 109.638 43.9478 109.682 43.4721C109.682 43.28 109.714 43.0801 109.733 42.8919C109.8 42.2451 109.886 41.606 109.996 40.9866C109.996 40.8925 110.035 40.8024 110.051 40.7083C110.153 40.1791 110.266 39.6577 110.392 39.1402C110.439 38.9598 110.486 38.7795 110.537 38.5992C110.658 38.1562 110.792 37.7249 110.929 37.2937C110.984 37.133 111.031 36.9683 111.09 36.8115C111.297 36.2352 111.521 35.6707 111.768 35.1258C112.042 34.5299 112.336 33.9497 112.658 33.3891C113.025 32.762 113.43 32.1572 113.869 31.5779C114.022 31.374 114.183 31.1859 114.339 30.9977C114.645 30.6331 114.959 30.2842 115.288 29.9627C115.465 29.7863 115.645 29.6138 115.829 29.4531C116.176 29.1507 116.54 28.868 116.919 28.6063C117.092 28.4848 117.26 28.3554 117.437 28.2456C117.989 27.8963 118.572 27.596 119.177 27.3479L97.7684 35.9804C97.1629 36.2322 96.5794 36.5338 96.0238 36.8821C95.8474 36.9918 95.6828 37.1212 95.5103 37.2427C95.1292 37.5031 94.764 37.7859 94.4165 38.0895C94.2362 38.2503 94.0558 38.4228 93.8794 38.5952C93.5501 38.9206 93.2365 39.2696 92.9307 39.6381C92.77 39.8262 92.6092 40.0301 92.4603 40.2143C92.3858 40.3084 92.3074 40.3908 92.2368 40.4888C91.8815 40.9838 91.5517 41.4967 91.2489 42.0255L91.1666 42.1745C90.8765 42.6972 90.6073 43.2199 90.359 43.7426C90.1342 44.234 89.9264 44.7358 89.7357 45.248C89.7121 45.3107 89.6965 45.3813 89.6729 45.444C89.6141 45.6008 89.5632 45.7655 89.5122 45.9262C89.422 46.185 89.3279 46.4437 89.2495 46.7103C89.1986 46.8828 89.1594 47.0592 89.1123 47.2317C89.0653 47.4042 89.0143 47.5884 88.9673 47.7727C88.9202 47.9569 88.8928 48.0393 88.8614 48.1647C88.7713 48.5568 88.7007 48.9488 88.6262 49.3408C88.6262 49.4349 88.587 49.5251 88.5713 49.6191C88.5713 49.6427 88.5713 49.6662 88.5713 49.6936C88.4812 50.2111 88.4067 50.7364 88.3439 51.2617C88.3439 51.3441 88.344 51.4303 88.3243 51.5127C88.3008 51.7047 88.2891 51.9047 88.2734 52.0889C88.2459 52.379 88.2146 52.6691 88.195 52.9632C88.195 53.1513 88.195 53.3552 88.195 53.5355C88.195 53.7903 88.1754 54.0452 88.1715 54.3196C88.1715 54.496 88.1519 54.6685 88.1519 54.8488C88.1519 55.1193 88.1519 55.4016 88.1715 55.676C88.1911 55.9504 88.1715 56.2837 88.1715 56.5934C88.1715 56.7149 88.1715 56.8325 88.1715 56.954C88.1989 57.5303 88.242 58.1301 88.293 58.7103L109.737 50.0621C109.67 49.3408 109.631 48.6391 109.604 47.9413C109.604 47.6355 109.604 47.3375 109.58 47.0357C109.565 46.5848 109.565 46.1301 109.565 45.6792Z" fill="url(#paint0_linear_12_21)"/>
<path d="M161.156 130.993L163.582 157.388L185.023 148.74L182.596 122.349L161.156 130.993Z" fill="url(#paint1_linear_12_21)"/>
<path d="M129.119 123.674L107.679 132.322L161.156 130.993L182.596 122.349L129.119 123.674Z" fill="url(#paint2_linear_12_21)"/>
<path d="M171.172 36.7214C171.174 36.6953 171.174 36.6691 171.172 36.643C170.966 35.4042 170.724 34.1942 170.447 33.0128C170.4 32.8207 170.337 32.6443 170.29 32.4522C170.176 31.9818 170.039 31.527 169.898 31.0644C169.737 30.4842 169.596 29.8883 169.42 29.3238C169.326 29.018 169.2 28.7358 169.098 28.4339C168.887 27.8067 168.659 27.1912 168.428 26.5835C168.275 26.1915 168.15 25.7603 167.985 25.3682C167.82 24.9762 167.593 24.5646 167.432 24.1569C167.271 23.7492 167.115 23.4512 166.95 23.1062C166.409 21.9929 165.837 20.9069 165.213 19.8681C165.182 19.8171 165.158 19.7661 165.127 19.7152V19.6838C164.472 18.6057 163.759 17.5864 163.01 16.5907C162.791 16.2967 162.555 16.0144 162.324 15.7243C162.018 15.3323 161.728 14.9402 161.407 14.5717C161.085 14.2032 160.787 13.9131 160.481 13.5799C160.254 13.3329 160.031 13.0859 159.795 12.8468C158.953 11.9883 158.086 11.1572 157.161 10.377L157.016 10.2594C156.109 9.49886 155.167 8.78145 154.189 8.10716C154.084 8.03267 153.97 7.97387 153.86 7.89938C153.605 7.72689 153.339 7.57007 153.076 7.4015C152.574 7.08003 152.08 6.74289 151.559 6.44103C151.202 6.23325 150.826 6.049 150.461 5.85298C150.187 5.70793 149.912 5.55504 149.634 5.41391C149.426 5.30806 149.242 5.19046 149.022 5.08461C148.183 4.67298 147.321 4.30054 146.443 3.92811L146.2 3.83794C146.016 3.76346 145.827 3.70073 145.647 3.63017C145.024 3.38711 144.4 3.14014 143.757 2.92452C143.303 2.77163 142.828 2.64225 142.362 2.50112C142.068 2.41095 141.774 2.31686 141.476 2.23062C141.276 2.17181 141.084 2.10517 140.88 2.05029C139.857 1.77195 138.806 1.52104 137.744 1.30151C137.661 1.30151 137.579 1.27407 137.497 1.25839C137.23 1.20351 136.952 1.1643 136.681 1.11725C135.866 0.964361 135.058 0.807559 134.219 0.686029C133.898 0.642906 133.557 0.619385 133.228 0.576262C132.687 0.509616 132.138 0.450803 131.585 0.395919C131.107 0.348875 130.652 0.278312 130.166 0.239109C129.68 0.199906 129.17 0.199901 128.68 0.172459C127.947 0.129336 127.214 0.0901408 126.465 0.0705392C126.073 0.0705392 125.74 0.0234937 125.363 0.0195734C124.292 0.0038922 123.203 0.0038922 122.098 0.0195734C121.549 0.0195734 121.004 0.0548614 120.459 0.0862238C119.914 0.117586 119.283 0.19207 118.695 0.243033C118.174 0.290077 117.644 0.325354 117.127 0.384159C116.947 0.384159 116.735 0.411599 116.574 0.4312C115.857 0.525288 115.159 0.66642 114.453 0.787949C113.963 0.874196 113.457 0.936923 112.975 1.03493L112.681 1.0859C112.054 1.21919 111.454 1.40736 110.839 1.56025C110.223 1.71314 109.482 1.88172 108.824 2.08166C108.737 2.10518 108.647 2.12085 108.565 2.14829C107.381 2.51158 106.222 2.9232 105.088 3.38319L83.6475 12.0275C84.8628 11.5374 86.1094 11.114 87.3796 10.7298C88.0421 10.5299 88.7282 10.377 89.4064 10.2084C90.0846 10.0399 90.8098 9.81641 91.5312 9.68312C92.0173 9.58511 92.523 9.51846 93.017 9.43613C93.899 9.28324 94.7811 9.13819 95.6828 9.0441C96.2003 8.98138 96.7295 8.9461 97.2509 8.90298C98.3721 8.80497 99.4933 8.70696 100.65 8.67952C102.143 8.64424 103.586 8.67953 105.017 8.71089C105.766 8.73441 106.499 8.7736 107.228 8.81281C108.212 8.87161 109.188 8.94218 110.137 9.04019C110.686 9.09508 111.239 9.15388 111.78 9.22052C112.956 9.36949 114.112 9.54983 115.241 9.76153C115.508 9.80857 115.782 9.84778 116.049 9.89874C117.417 10.1771 118.742 10.5064 120.036 10.8749C120.334 10.9572 120.628 11.0513 120.922 11.1415C122.043 11.4865 123.141 11.8589 124.207 12.2744L124.756 12.4783C125.932 12.9566 127.08 13.4897 128.194 14.0464C128.472 14.1875 128.747 14.3404 129.021 14.4855C129.92 14.9716 130.792 15.4878 131.636 16.034C131.895 16.2026 132.165 16.3594 132.42 16.5319C134.569 17.9623 136.557 19.6197 138.351 21.4754C138.587 21.7184 138.814 21.9654 139.041 22.2124C139.684 22.9024 140.296 23.6198 140.884 24.3568C141.115 24.6469 141.35 24.9292 141.57 25.2232C142.333 26.2323 143.045 27.279 143.703 28.3594L143.793 28.5162C144.416 29.5551 144.969 30.6371 145.526 31.7505C145.69 32.0955 145.847 32.4483 146.008 32.8011C146.361 33.5852 146.686 34.4046 147.003 35.2278C147.235 35.8355 147.462 36.447 147.674 37.0782C147.96 37.9328 148.227 38.811 148.458 39.7048C148.587 40.1674 148.724 40.6261 148.85 41.0965C149.187 42.4568 149.489 43.8407 149.732 45.2873C149.732 45.3147 149.732 45.3383 149.732 45.3657C149.993 46.9861 150.209 48.6561 150.379 50.3758C150.5 51.6852 150.551 52.9828 150.571 54.2961C150.571 54.5 150.571 54.6882 150.571 54.9156C150.571 56.1661 150.52 57.4128 150.426 58.6555C150.426 58.926 150.379 59.1965 150.355 59.467C150.238 60.7333 150.089 61.9996 149.869 63.258V63.3246C149.626 64.7124 149.324 66.0937 148.964 67.4684C148.677 68.5347 148.317 69.6206 147.952 70.7104C147.799 71.1613 147.662 71.6082 147.497 72.0669C147.254 72.7333 146.964 73.4155 146.713 74.0897C146.384 74.9169 146.059 75.7402 145.682 76.5752C145.122 77.8297 144.53 79.096 143.871 80.3779C143.777 80.5583 143.671 80.7464 143.573 80.9307C142.864 82.291 142.115 83.6749 141.292 85.0588C140.86 85.7879 140.39 86.5524 139.888 87.3404C139.727 87.5991 139.547 87.8735 139.375 88.1244C139.026 88.6694 138.669 89.2182 138.289 89.7906C138.069 90.1238 137.83 90.4649 137.599 90.8059C137.238 91.3391 136.873 91.8762 136.485 92.4329C136.227 92.8014 135.956 93.1816 135.701 93.5658C135.337 94.0755 134.964 94.5969 134.584 95.1339C134.125 95.769 133.651 96.4198 133.165 97.0941L132.118 98.5054C131.593 99.211 131.04 99.9363 130.483 100.665C130.123 101.136 129.778 101.595 129.405 102.077C128.762 102.908 128.088 103.774 127.406 104.641C127.084 105.033 126.779 105.448 126.449 105.864C125.418 107.169 124.352 108.502 123.239 109.878L107.714 132.357L129.154 123.713L144.679 101.234C145.792 99.8579 146.854 98.525 147.882 97.2234C148.227 96.7883 148.544 96.3767 148.881 95.9533C149.548 95.1026 150.21 94.2519 150.841 93.4364C151.214 92.9543 151.563 92.4917 151.92 92.0212C152.48 91.2881 153.037 90.5589 153.562 89.8533C153.919 89.3789 154.256 88.9163 154.597 88.4537C155.087 87.7912 155.565 87.1365 156.028 86.4936L156.502 85.8428C156.726 85.5331 156.922 85.243 157.137 84.9372C157.408 84.5452 157.678 84.1767 157.921 83.8043C158.314 83.2476 158.674 82.7105 159.039 82.1773C159.266 81.8402 159.505 81.4952 159.725 81.162C160.117 80.5857 160.466 80.0329 160.823 79.4841C160.987 79.2253 161.164 78.9588 161.324 78.7C161.822 77.916 162.297 77.1319 162.728 76.4106C163.057 75.8539 163.375 75.3011 163.688 74.7484C164.155 73.9173 164.582 73.1018 165.009 72.2825C165.107 72.0982 165.213 71.914 165.307 71.7297C165.88 70.6164 166.415 69.5148 166.915 68.4249C166.993 68.2564 167.048 68.0956 167.122 67.931C167.514 67.092 167.82 66.2687 168.15 65.4416C168.361 64.9162 168.612 64.3792 168.804 63.8734C168.859 63.7245 168.898 63.5794 168.953 63.4304C169.118 62.9757 169.259 62.5249 169.408 62.0701C169.612 61.4664 169.839 60.8587 170.016 60.2589C170.157 59.7807 170.29 59.3063 170.408 58.8319C170.525 58.3576 170.655 57.8715 170.764 57.3893C170.972 56.4954 171.156 55.5938 171.313 54.6921V54.6215C171.466 53.7316 171.596 52.8339 171.705 51.9361C171.744 51.5755 171.764 51.2109 171.799 50.8502C171.823 50.5797 171.85 50.3092 171.87 50.0387C171.89 49.7682 171.921 49.5369 171.937 49.286C171.991 48.4 172.02 47.5114 172.023 46.6202C172.023 46.5144 172.023 46.4046 172.023 46.2987C172.023 46.0949 172.023 45.9067 172.023 45.6793C172.023 45.0795 172.023 44.4797 171.98 43.8799C171.944 43.1782 171.897 42.4804 171.831 41.7747C171.799 41.414 171.764 41.0534 171.725 40.6966C171.564 39.3049 171.388 37.9955 171.172 36.7214Z" fill="url(#paint3_linear_12_21)"/>
<path d="M100.63 8.656C115.3 8.29011 126.942 11.6982 135.556 18.8802C144.17 26.0621 149.11 36.5529 150.375 50.3523C150.915 56.0939 150.436 61.8858 148.96 67.4605C147.466 73.0313 144.902 78.8804 141.268 85.0509C137.634 91.2215 131.593 99.4816 123.203 109.855L107.679 132.334L161.156 131.009L163.582 157.404L68.7739 159.756L66.7196 137.41L105.805 86.3838C115.342 72.7726 119.752 62.0492 119.036 54.2138C118.448 47.8355 116.715 43.0371 113.873 39.7754C111.031 36.5137 107.15 34.973 102.308 35.0945C97.4666 35.216 93.8403 37.5251 91.249 42.0335C88.6576 46.5418 87.6854 52.1008 88.2931 58.73L56.7699 59.5141C55.9388 50.4582 57.2521 42.0335 60.7098 34.2399C63.9936 26.6645 69.4597 20.239 76.4106 15.7831C83.4123 11.2643 91.4855 8.88861 100.63 8.656Z" fill="url(#paint4_linear_12_21)"/>
<path d="M75.0658 17.5315C82.0675 13.0205 90.1407 10.6539 99.2854 10.4318C113.955 10.0711 125.598 13.4792 134.215 20.6559C142.832 27.8327 147.77 38.3234 149.03 52.1281C149.563 57.862 149.076 63.645 147.591 69.2089C146.099 74.7783 143.535 80.6405 139.9 86.7954C137.32 91.1547 133.551 96.5647 128.594 103.025C134.21 95.7885 138.431 89.7918 141.256 85.0352C144.89 78.8646 147.454 73.0155 148.948 67.4448C150.421 61.8801 150.9 56.0991 150.363 50.3679C149.095 36.5658 144.156 26.0751 135.544 18.8957C126.933 11.7163 115.295 8.30307 100.63 8.65589C91.4827 8.88327 83.4095 11.2498 76.4105 15.7556C72.0162 18.5701 68.1967 22.194 65.1553 26.4345C67.9552 22.95 71.3023 19.9433 75.0658 17.5315Z" fill="url(#paint5_linear_12_21)"/>
<path d="M91.9738 40.8965C91.18 41.7835 90.4823 42.752 89.8921 43.7857C87.5399 47.8942 86.5193 52.8848 86.8304 58.7574L88.2926 58.7221C87.6837 52.089 88.669 46.5234 91.2485 42.0255C91.4798 41.6257 91.7268 41.265 91.9738 40.8965Z" fill="url(#paint6_linear_12_21)"/>
<path d="M107.679 132.318L122.858 110.341C122.517 110.764 122.196 111.172 121.847 111.603L106.322 134.082L159.799 132.753L162.065 157.424L163.582 157.388L161.156 130.993L107.679 132.318Z" fill="url(#paint7_linear_12_21)"/>
<path d="M93.8599 334.41L49.9917 349.871L83.5416 352.278L127.41 336.817L93.8599 334.41Z" fill="url(#paint8_linear_12_21)"/>
<path d="M79.582 257.889C78.1608 256.506 76.2952 255.673 74.317 255.537L40.7671 253.13C42.7452 253.266 44.6109 254.099 46.0321 255.482C48.7057 257.995 50.5835 262.354 51.689 268.592C51.7831 269.125 51.8106 269.728 51.8694 270.305C51.9164 270.799 51.9909 271.269 52.0105 271.794C52.0301 272.253 52.0105 272.771 52.0105 273.257C52.0105 273.943 52.0105 274.609 51.9635 275.342C51.8929 276.397 51.7714 277.506 51.6107 278.659C51.5754 278.918 51.5362 279.184 51.493 279.443C51.3558 280.325 51.1794 281.254 50.9912 282.187C50.8893 282.697 50.7952 283.195 50.6815 283.72C50.4542 284.735 50.1837 285.798 49.8975 286.856C49.7838 287.276 49.6936 287.676 49.576 288.111C49.184 289.549 48.7253 291.047 48.2313 292.592C48.102 292.984 47.9569 293.415 47.8393 293.827C47.4342 295.05 47.0004 296.304 46.5378 297.59C46.3653 298.072 46.1928 298.554 46.0125 299.044C45.3813 300.746 44.7188 302.483 43.9896 304.29L16.7905 365.795L50.3444 368.203L77.5121 306.736C78.2413 304.925 78.9038 303.208 79.535 301.487C79.7153 301.001 79.8878 300.522 80.0603 300.044C80.5255 298.737 80.9606 297.478 81.3657 296.265C81.499 295.873 81.6441 295.442 81.7578 295.042C82.2243 293.576 82.6634 292.145 83.0475 290.773C83.0671 290.698 83.0828 290.628 83.1024 290.549C83.22 290.126 83.3102 289.734 83.416 289.322C83.7022 288.24 83.9727 287.17 84.2001 286.151C84.3177 285.625 84.4079 285.127 84.5098 284.622C84.6235 284.038 84.7646 283.446 84.8626 282.869C84.9214 282.52 84.9607 282.199 85.0116 281.862C85.0547 281.599 85.0939 281.336 85.1292 281.078C85.2821 279.992 85.4076 278.933 85.4781 277.941C85.4781 277.879 85.4781 277.824 85.4781 277.761C85.5291 277.028 85.5173 276.358 85.5252 275.676C85.5252 275.233 85.5683 274.75 85.5526 274.327C85.5526 274.288 85.5526 274.252 85.5526 274.209C85.5526 273.684 85.4585 273.218 85.4115 272.724C85.3644 272.23 85.3448 271.704 85.2704 271.242C85.2704 271.163 85.2429 271.085 85.2312 271.01C84.1335 264.761 82.2556 260.402 79.582 257.889Z" fill="url(#paint9_linear_12_21)"/>
<path d="M16.7944 365.788L20.6638 387.632L54.2137 390.039L50.3444 368.195L16.7944 365.788Z" fill="url(#paint10_linear_12_21)"/>
<path d="M50.4581 239.475C50.7364 239.213 51.0226 238.97 51.3048 238.719C51.74 238.327 52.1712 237.935 52.6181 237.582C52.9239 237.327 53.2415 237.088 53.5551 236.845C53.9902 236.508 54.4254 236.171 54.8684 235.853C55.2016 235.614 55.5388 235.387 55.8759 235.159C56.3189 234.861 56.7658 234.563 57.2206 234.281C57.5695 234.065 57.9223 233.854 58.2791 233.65C58.7377 233.379 59.2003 233.121 59.6708 232.866C60.0354 232.674 60.3999 232.474 60.7685 232.301C61.2467 232.062 61.7328 231.835 62.2229 231.615C62.5953 231.447 62.9717 231.278 63.348 231.121C64.1125 230.804 64.8769 230.494 65.6649 230.216C67.2957 229.643 68.8874 229.153 70.4398 228.746C70.973 228.608 71.4748 228.534 72.008 228.412C73.0116 228.185 74.0191 227.938 74.9874 227.781C76.2926 227.571 77.6076 227.427 78.9273 227.35C79.3193 227.326 79.7114 227.35 80.0799 227.322C81.1697 227.295 82.2517 227.275 83.2945 227.35L49.7446 224.943C49.2859 224.911 48.8194 224.888 48.3528 224.876C47.7609 224.876 47.1376 224.9 46.5299 224.915C46.1379 224.915 45.7694 224.915 45.3773 224.943C44.1072 225.021 42.8135 225.151 41.4806 225.362H41.4374C40.4691 225.519 39.4773 225.754 38.458 225.993C37.9327 226.115 37.4309 226.19 36.8899 226.327C35.3374 226.734 33.7458 227.224 32.115 227.797C31.5034 228.016 30.8984 228.245 30.2999 228.483C30.1313 228.55 29.9706 228.632 29.802 228.702C29.4099 228.859 29.0454 229.028 28.6729 229.196C28.1829 229.42 27.6968 229.643 27.2185 229.882C26.85 230.067 26.4815 230.274 26.1208 230.451C25.6504 230.698 25.1878 230.957 24.7291 231.235C24.3724 231.443 24.0195 231.654 23.6667 231.874C23.2159 232.156 22.769 232.45 22.326 232.748C21.9888 232.976 21.6517 233.203 21.3184 233.442C20.8754 233.76 20.4403 234.097 20.0051 234.434C19.6915 234.677 19.374 234.916 19.0643 235.171C18.6213 235.536 18.19 235.92 17.7588 236.304C17.4766 236.559 17.1864 236.802 16.9081 237.064C16.4416 237.5 15.9868 237.962 15.5321 238.425C15.3047 238.656 15.0695 238.876 14.846 239.115C14.177 239.826 13.5236 240.563 12.8859 241.326C12.1018 242.275 11.3491 243.258 10.6317 244.258C10.4122 244.56 10.2083 244.866 9.99662 245.172C9.48698 245.916 8.99432 246.674 8.51866 247.445C8.40105 247.641 8.26384 247.837 8.12663 248.022C8.04822 248.155 7.9855 248.292 7.90709 248.414C7.38569 249.308 6.89173 250.221 6.41738 251.158C6.33505 251.326 6.24096 251.487 6.15472 251.656C5.61372 252.753 5.10799 253.886 4.63364 255.035C4.59836 255.125 4.55131 255.212 4.51603 255.302C4.37098 255.655 4.24945 256.023 4.124 256.38C3.9123 256.94 3.69669 257.497 3.49675 258.065C3.3321 258.548 3.17921 259.038 3.02239 259.528C2.83814 260.1 2.65781 260.669 2.48923 261.253C2.44219 261.409 2.39123 261.558 2.34418 261.715C2.14033 262.456 1.95215 263.209 1.76398 263.966C1.4582 265.232 1.2073 266.502 0.97992 267.768C0.956398 267.898 0.921116 268.023 0.901515 268.16C0.827029 268.588 0.776061 269.015 0.713336 269.442C0.63885 269.928 0.560443 270.414 0.497718 270.901C0.423232 271.496 0.364432 272.077 0.305627 272.684C0.258584 273.163 0.203697 273.641 0.168414 274.119C0.168414 274.225 0.144892 274.335 0.137051 274.444C0.105689 274.868 0.101769 275.291 0.0821671 275.715C0.0508047 276.295 0.0155231 276.891 0.00376223 277.455C-0.00799868 278.02 0.00376223 278.522 0.00376223 279.055C0.00376223 279.588 0.00376223 280.207 0.00376223 280.784C0.00376223 280.909 0.00376223 281.035 0.00376223 281.176C0.00376223 281.446 0.0468853 281.717 0.0586462 281.987C0.10177 282.897 0.160575 283.806 0.242901 284.731C0.282104 285.17 0.325228 285.606 0.372272 286.041C0.474199 286.95 0.595726 287.865 0.736857 288.785C0.77606 289.055 0.799583 289.322 0.842707 289.593C0.88583 289.863 0.932876 290.122 0.97992 290.377L34.5299 292.784C34.4358 292.247 34.3691 291.713 34.2868 291.18C34.1457 290.268 34.0241 289.353 33.9222 288.436C33.8752 288 33.8321 287.564 33.7929 287.131C33.7105 286.217 33.6517 285.304 33.6086 284.386C33.589 283.994 33.5616 283.602 33.5498 283.21C33.5498 282.63 33.5498 282.034 33.5498 281.47C33.5498 280.905 33.5498 280.407 33.5498 279.878C33.5498 279.349 33.5968 278.702 33.6282 278.134C33.6596 277.565 33.6752 277.075 33.7144 276.565C33.7536 276.056 33.8046 275.601 33.8556 275.119C33.9144 274.527 33.9693 273.943 34.0437 273.343C34.1065 272.857 34.1849 272.371 34.2594 271.881C34.3417 271.328 34.4279 270.775 34.5259 270.222C34.7533 268.952 35.0042 267.682 35.31 266.416C35.5295 265.498 35.7765 264.601 36.0353 263.707C36.2038 263.123 36.3881 262.531 36.5723 261.97C36.7252 261.484 36.8781 260.994 37.0428 260.516C37.2427 259.947 37.4583 259.391 37.67 258.83C37.8425 258.379 38.0111 257.928 38.1954 257.485C38.6697 256.337 39.1715 255.208 39.7125 254.106C39.7988 253.933 39.8928 253.769 39.9791 253.6C40.4495 252.67 40.9448 251.755 41.4649 250.856C41.657 250.527 41.8569 250.201 42.0608 249.876C42.5312 249.092 43.0252 248.347 43.5348 247.602C43.7465 247.296 43.9504 246.991 44.1699 246.689C44.8873 245.689 45.6322 244.705 46.4241 243.756C47.0618 242.991 47.7152 242.254 48.3842 241.545C48.6116 241.306 48.8429 241.087 49.0703 240.855C49.5368 240.373 49.9759 239.911 50.4581 239.475Z" fill="url(#paint11_linear_12_21)"/>
<path d="M65.6569 230.22C77.6792 225.981 87.5897 226.319 95.3885 231.235C103.187 236.151 108.276 245.36 110.654 258.861C111.663 264.638 111.832 270.529 111.156 276.354C110.474 282.328 108.938 288.88 106.55 296.01C104.161 303.14 100.014 313.019 94.1105 325.648L83.5257 352.278L127.394 336.817L131.965 362.628L54.1979 390.039L50.3285 368.195L77.4962 306.728C84.0144 290.564 86.59 278.654 85.2232 270.999C84.1176 264.761 82.2398 260.414 79.5662 257.889C76.8925 255.364 73.5798 254.847 69.6086 256.25C65.6373 257.654 62.8814 260.923 61.1878 266.126C59.4942 271.328 59.2276 277.157 60.4037 283.642L34.5297 292.756C32.957 284.007 33.224 275.025 35.3138 266.384C37.4046 257.674 41.1093 250.124 46.4278 243.737C51.7464 237.349 58.1561 232.844 65.6569 230.22Z" fill="url(#paint12_linear_12_21)"/>
<path d="M85.1016 352.804L127.586 337.828L127.409 336.817L85.5994 351.553L85.1016 352.804Z" fill="url(#paint13_linear_12_21)"/>
<path d="M51.9045 368.72L79.0761 307.254C85.5917 291.089 88.166 279.179 86.7991 271.524C85.6936 265.283 83.8158 260.939 81.1421 258.414C80.0321 257.346 78.6527 256.6 77.1513 256.254C78.0465 256.661 78.8679 257.213 79.5818 257.889C82.2555 260.402 84.1333 264.761 85.2389 270.999C86.5953 278.667 84.0196 290.577 77.5119 306.728L50.3442 368.195L54.2136 390.039L55.5935 389.549L51.9045 368.72Z" fill="url(#paint14_linear_12_21)"/>
<path d="M36.8779 266.91C38.9687 258.199 42.6734 250.65 47.992 244.262C53.3105 237.875 59.7215 233.369 67.225 230.745C76.077 227.63 83.7778 226.996 90.3273 228.844C83.4433 226.417 75.2342 226.848 65.6647 230.22C58.1586 232.867 51.7529 237.373 46.4474 243.737C41.1419 250.101 37.4372 257.65 35.3333 266.384C33.2435 275.025 32.9765 284.007 34.5493 292.756L35.9566 292.258C34.5668 283.832 34.88 275.213 36.8779 266.91Z" fill="url(#paint15_linear_12_21)"/>
<path style="mix-blend-mode:multiply" d="M156.296 301.03C183.953 273.373 183.953 228.532 156.296 200.875C128.639 173.218 83.798 173.218 56.141 200.875C28.4839 228.532 28.4839 273.373 56.141 301.03C83.798 328.687 128.639 328.687 156.296 301.03Z" fill="url(#paint16_radial_12_21)"/>
<path style="mix-blend-mode:multiply" d="M231.526 151.126C259.183 123.469 259.183 78.6281 231.526 50.9711C203.869 23.3141 159.028 23.3141 131.371 50.9711C103.714 78.6281 103.714 123.469 131.371 151.126C159.028 178.783 203.869 178.783 231.526 151.126Z" fill="url(#paint17_radial_12_21)"/>
<path d="M256.312 267.661C261.136 220.168 226.546 177.758 179.054 172.933C131.562 168.109 89.1512 202.699 84.3271 250.191C79.503 297.683 114.092 340.094 161.585 344.918C209.077 349.742 251.488 315.153 256.312 267.661Z" fill="url(#paint18_radial_12_21)"/>
<path style="mix-blend-mode:color-dodge" d="M230.921 213.609C249.202 235.402 251.26 263.789 235.512 276.989C219.764 290.189 192.181 283.238 173.897 261.441C155.612 239.644 153.558 211.261 169.302 198.061C185.046 184.862 212.633 191.812 230.921 213.609Z" fill="url(#paint19_radial_12_21)"/>
<path style="mix-blend-mode:color-dodge" d="M130.801 197.709C146.058 189.99 162.947 192.671 168.522 203.695C174.096 214.719 166.248 229.91 150.99 237.629C135.732 245.348 118.844 242.667 113.265 231.643C107.687 220.619 115.539 205.428 130.801 197.709Z" fill="url(#paint20_radial_12_21)"/>
<path d="M170.219 345.3C200.21 343.956 223.535 332.363 239.577 310.86C237.899 312.946 235.657 315.745 233.881 317.744C215.969 335.935 196.336 344.434 170.219 345.3Z" fill="url(#paint21_linear_12_21)"/>
<path d="M170.219 345.3C231.733 340.074 271.873 279.376 249.754 225.029C251.714 230.157 254.176 236.543 255.568 244.811C255.831 246.897 256.262 249.672 256.438 251.77C258.791 307.803 214.452 343.328 170.219 345.3Z" fill="url(#paint22_linear_12_21)"/>
<path d="M170.219 345.3C237.158 336.283 280.744 237.186 221.614 189.844C215.977 185.332 210.638 182.592 206.749 180.589C208.74 181.604 211.406 182.941 213.35 184.031C215.283 185.254 217.898 186.834 219.78 188.143C288.111 240.589 237.307 336.511 173.767 344.955C172.709 345.096 171.286 345.194 170.239 345.3" fill="url(#paint23_linear_12_21)"/>
<path d="M170.219 345.3C230.317 332.9 267.443 218.533 207.313 181.906C199.414 177.096 192.459 175.398 188.3 174.387L189.915 174.747C274.009 198.598 238.425 313.099 185.112 340.396C177.883 344.097 172.513 344.939 170.215 345.3" fill="url(#paint24_linear_12_21)"/>
<path d="M170.219 345.3C203.15 331.422 249.327 202.139 191.683 176.21C186.931 174.073 182.666 173.438 179.875 173.019L181.184 173.175C254.388 186.571 219.717 313.632 177.264 341.956C175.116 343.446 172.739 344.575 170.227 345.3" fill="url(#paint25_linear_12_21)"/>
<path d="M170.219 345.3C170.552 342.509 171.595 338.494 175.817 323.829C184.152 294.877 195.568 255.223 196.622 219.784C197.799 180.02 183.819 173.175 175.374 172.634L176.605 172.717C234.685 181.286 184.599 328.564 170.219 345.3Z" fill="url(#paint26_linear_12_21)"/>
<path d="M170.219 345.3C156.02 337.267 163.319 293.944 170.38 252.024C178.377 204.565 183.658 173.226 172.622 172.513H172.952C186.645 175.096 180.549 210.685 171.317 264.557C165.589 297.994 158.462 339.608 170.219 345.292" fill="url(#paint27_linear_12_21)"/>
<path d="M170.219 345.3C107.494 330.685 156.922 181.243 168.502 172.913C168.791 172.698 169.125 172.551 169.478 172.481H170.454C165.084 194.043 157.337 214.974 152.986 236.818C149.187 255.874 146.909 276.021 146.886 290.722C146.831 333.771 161.481 343.395 170.219 345.3Z" fill="url(#paint28_linear_12_21)"/>
<path d="M170.219 345.3C94.3223 334.61 112.826 209.348 154.766 177.578C160.971 172.874 165.166 172.638 166.546 172.556L167.193 172.525H167.612C133.804 178.013 100.775 303.788 151.48 338.408C157.054 342.242 163.502 344.614 170.231 345.304" fill="url(#paint29_linear_12_21)"/>
<path d="M170.219 345.3C87.4461 337.495 87.3873 224.888 138.602 183.729C149.947 174.61 158.38 173.442 163.418 172.752H163.571L163.876 172.729C107.259 180.718 77.7002 292.741 136.826 333.947C150.363 343.379 162.308 344.532 170.208 345.316" fill="url(#paint30_linear_12_21)"/>
<path d="M170.219 345.3C85.7249 340.874 64.7631 242.761 119.134 192.632C126.884 185.489 139.731 176.374 156.922 173.505L157.941 173.352L159.446 173.152C88.1751 185.822 68.1973 293.407 129.762 333.041C147.238 344.293 163.935 345.026 170.219 345.3Z" fill="url(#paint31_linear_12_21)"/>
<path d="M131.103 336.048C115.66 328.241 102.905 315.993 94.4791 300.879C68.1111 248.092 95.5376 197.462 137.293 179.005C139.394 178.221 142.181 177.143 144.31 176.453C145.518 176.1 147.117 175.614 148.332 175.277C73.8465 198.257 62.7364 298.766 130.589 335.766C130.742 335.852 130.95 335.954 131.103 336.033" fill="url(#paint32_linear_12_21)"/>
<path d="M170.329 159.196C168.691 159.196 167.091 158.71 165.729 157.8C164.367 156.89 163.306 155.597 162.68 154.084C162.053 152.571 161.889 150.907 162.208 149.301C162.528 147.695 163.316 146.219 164.474 145.061C165.632 143.903 167.108 143.115 168.714 142.795C170.32 142.476 171.985 142.64 173.497 143.266C175.01 143.893 176.304 144.954 177.213 146.316C178.123 147.678 178.609 149.278 178.609 150.916C178.607 153.111 177.734 155.216 176.181 156.768C174.629 158.321 172.524 159.194 170.329 159.196ZM170.329 145.329C169.224 145.329 168.144 145.657 167.225 146.271C166.307 146.885 165.591 147.757 165.168 148.778C164.745 149.799 164.634 150.922 164.85 152.006C165.065 153.089 165.598 154.085 166.379 154.866C167.16 155.647 168.155 156.179 169.239 156.395C170.323 156.611 171.446 156.5 172.467 156.077C173.488 155.654 174.36 154.938 174.974 154.02C175.588 153.101 175.915 152.021 175.915 150.916C175.917 150.181 175.775 149.452 175.495 148.773C175.215 148.093 174.804 147.475 174.285 146.954C173.766 146.433 173.15 146.02 172.471 145.738C171.792 145.456 171.064 145.31 170.329 145.31V145.329Z" fill="url(#paint33_linear_12_21)"/>
<path d="M188.821 174.626H151.81V165.076C151.81 163.667 152.087 162.271 152.627 160.969C153.166 159.667 153.957 158.484 154.954 157.488C155.95 156.491 157.134 155.701 158.436 155.162C159.738 154.623 161.134 154.346 162.543 154.346H178.091C179.5 154.346 180.896 154.623 182.198 155.162C183.5 155.701 184.683 156.491 185.68 157.488C186.676 158.484 187.466 159.667 188.005 160.969C188.544 162.271 188.822 163.667 188.821 165.076V174.626Z" fill="url(#paint34_linear_12_21)"/>
<path style="mix-blend-mode:multiply" d="M299.086 300.473C326.743 272.815 326.743 227.975 299.086 200.318C271.429 172.661 226.588 172.661 198.931 200.318C171.274 227.975 171.274 272.815 198.931 300.473C226.588 328.13 271.429 328.13 299.086 300.473Z" fill="url(#paint35_radial_12_21)"/>
<path style="mix-blend-mode:multiply" d="M214.33 401.461C241.987 373.804 241.987 328.963 214.33 301.306C186.673 273.649 141.832 273.649 114.175 301.306C86.5176 328.963 86.5176 373.804 114.175 401.461C141.832 429.118 186.673 429.118 214.33 401.461Z" fill="url(#paint36_radial_12_21)"/>
<path d="M259.712 127.833C257.807 126.127 255.306 125.136 252.209 124.862C251.557 124.804 250.903 124.782 250.249 124.795C250.037 124.795 249.857 124.826 249.633 124.838C249.214 124.862 248.798 124.889 248.394 124.948C248.159 124.979 247.928 125.034 247.696 125.077C247.336 125.148 246.979 125.214 246.634 125.312C246.395 125.375 246.16 125.457 245.928 125.536C245.697 125.614 245.493 125.657 245.282 125.74C245.164 125.787 245.054 125.85 244.94 125.897C244.741 125.983 244.548 126.077 244.345 126.171C244.141 126.265 244.023 126.308 243.866 126.391C243.71 126.473 243.474 126.63 243.259 126.747C243.153 126.814 243.047 126.869 242.941 126.939L242.773 127.037C242.451 127.249 242.134 127.476 241.824 127.716C241.753 127.77 241.687 127.833 241.62 127.892C241.553 127.951 241.451 128.029 241.369 128.1C241.287 128.17 241.083 128.335 240.942 128.46C240.652 128.727 240.365 129.005 240.087 129.299C239.797 129.609 239.511 129.934 239.233 130.272C239.076 130.468 238.919 130.664 238.766 130.867C238.613 131.071 238.437 131.307 238.276 131.538C238.115 131.769 238.009 131.953 237.884 132.157C237.7 132.432 237.519 132.706 237.339 133C237.272 133.114 237.198 133.212 237.127 133.326C237.057 133.439 236.939 133.694 236.841 133.863C236.551 134.38 236.265 134.913 235.987 135.474C235.9 135.639 235.81 135.78 235.728 135.952C235.645 136.125 235.555 136.344 235.469 136.532C235.325 136.849 235.18 137.174 235.034 137.508C234.838 137.963 234.642 138.43 234.454 138.908C234.316 139.253 234.183 139.602 234.062 139.959C233.995 140.135 233.924 140.296 233.858 140.476C233.74 140.805 233.63 141.166 233.513 141.507C233.395 141.848 233.258 142.244 233.121 142.632C232.94 143.197 232.768 143.785 232.595 144.373C232.482 144.765 232.368 145.122 232.258 145.514C232.074 146.184 231.898 146.882 231.721 147.584C231.635 147.929 231.545 148.258 231.459 148.611C231.204 149.681 230.953 150.779 230.718 151.92L223.908 188.472C223.677 189.715 223.473 190.911 223.293 192.079C223.234 192.471 223.187 192.816 223.136 193.189C223.022 193.973 222.916 194.733 222.826 195.474C222.775 195.89 222.736 196.29 222.693 196.693C222.618 197.368 222.556 198.03 222.505 198.677C222.473 199.069 222.446 199.461 222.422 199.853C222.383 200.488 222.356 201.104 222.336 201.711C222.336 202.052 222.313 202.401 222.309 202.738C222.309 203.405 222.309 204.04 222.309 204.667C222.309 204.902 222.309 205.149 222.309 205.381C222.348 206.22 222.411 207.023 222.501 207.784C222.52 207.948 222.548 208.094 222.571 208.254C222.638 208.752 222.701 209.25 222.791 209.717C222.791 209.783 222.826 209.842 222.838 209.909C222.99 210.704 223.189 211.489 223.434 212.261C223.493 212.437 223.551 212.61 223.614 212.782C223.677 212.955 223.771 213.139 223.849 213.319C223.963 213.598 224.073 213.876 224.202 214.139C224.241 214.221 224.269 214.311 224.308 214.39C224.437 214.644 224.586 214.88 224.727 215.119C224.786 215.225 224.841 215.33 224.904 215.432C224.923 215.461 224.94 215.491 224.955 215.522C225.155 215.832 225.37 216.134 225.594 216.42L225.727 216.573L225.915 216.793C226.025 216.918 226.127 217.051 226.241 217.185C226.445 217.4 226.656 217.608 226.876 217.804L243.572 232.76C243.231 232.45 242.91 232.117 242.612 231.764L242.424 231.549C242.128 231.183 241.853 230.801 241.6 230.404C241.538 230.306 241.483 230.196 241.424 230.094C241.236 229.777 241.059 229.451 240.899 229.11C240.769 228.852 240.66 228.573 240.546 228.295C240.401 227.946 240.252 227.605 240.13 227.232C239.883 226.461 239.684 225.676 239.534 224.88C239.429 224.355 239.342 223.798 239.268 223.23C239.244 223.069 239.213 222.92 239.197 222.759C239.106 221.996 239.042 221.194 239.005 220.352C239.005 220.125 239.005 219.874 239.005 219.639C238.986 219.012 238.978 218.376 238.986 217.71C238.986 217.377 238.986 217.024 239.013 216.679C239.013 216.075 239.06 215.46 239.099 214.829C239.123 214.437 239.15 214.045 239.182 213.653C239.233 213.006 239.295 212.347 239.37 211.673C239.409 211.281 239.452 210.865 239.503 210.45C239.593 209.709 239.699 208.94 239.809 208.164C239.864 207.772 239.911 207.435 239.97 207.055C240.15 205.879 240.362 204.702 240.585 203.448L247.395 166.895C247.63 165.754 247.877 164.657 248.136 163.586C248.222 163.23 248.312 162.896 248.402 162.547C248.575 161.854 248.751 161.16 248.935 160.493C249.045 160.101 249.163 159.709 249.276 159.317C249.445 158.733 249.617 158.141 249.798 157.592C249.923 157.2 250.053 156.836 250.19 156.459C250.37 155.934 250.55 155.416 250.739 154.919C250.872 154.558 251.009 154.209 251.131 153.864C251.319 153.386 251.523 152.919 251.707 152.468C251.848 152.135 251.993 151.81 252.142 151.488C252.291 151.167 252.483 150.779 252.66 150.43C252.938 149.869 253.224 149.336 253.514 148.822C253.679 148.528 253.844 148.231 254.012 147.956C254.181 147.682 254.373 147.388 254.557 147.113C254.847 146.67 255.141 146.223 255.447 145.823C255.857 145.276 256.298 144.753 256.768 144.255C257.174 143.832 257.604 143.432 258.054 143.056C258.136 142.985 258.219 142.911 258.305 142.844C258.725 142.5 259.166 142.181 259.626 141.891L259.943 141.703C260.296 141.492 260.661 141.311 261.029 141.123C261.225 141.029 261.421 140.935 261.625 140.849C261.947 140.715 262.28 140.602 262.609 140.488C262.845 140.41 263.076 140.327 263.319 140.264C263.664 140.17 264.021 140.1 264.377 140.029C264.613 139.986 264.844 139.931 265.079 139.9C265.471 139.841 265.898 139.818 266.318 139.794C266.522 139.794 266.71 139.755 266.933 139.751C267.581 139.735 268.229 139.756 268.874 139.814C271.971 140.088 274.472 141.079 276.377 142.785L259.712 127.833Z" fill="url(#paint37_linear_12_21)"/>
<path d="M312.025 172.823C312.083 172.391 312.146 171.956 312.197 171.529C312.436 169.569 312.628 167.609 312.75 165.735C312.77 165.413 312.777 165.1 312.793 164.778C312.887 163.053 312.93 161.367 312.922 159.721C312.922 159.446 312.922 159.16 312.922 158.89C312.895 157.118 312.797 155.405 312.648 153.731C312.617 153.362 312.577 153.001 312.538 152.637C312.362 150.983 312.146 149.356 311.856 147.795C311.854 147.773 311.854 147.751 311.856 147.729C311.829 147.599 311.793 147.478 311.766 147.337C311.476 145.855 311.119 144.424 310.711 143.024C310.578 142.55 310.421 142.095 310.272 141.633C310.092 141.076 309.939 140.496 309.739 139.955C309.602 139.563 309.418 139.241 309.273 138.873C308.947 138.053 308.598 137.254 308.23 136.466C308.046 136.074 307.9 135.642 307.704 135.254C307.363 134.58 307.003 133.917 306.63 133.271C306.309 132.714 305.98 132.173 305.638 131.64C305.556 131.514 305.462 131.405 305.38 131.283C304.945 130.62 304.486 129.985 304.015 129.362C303.87 129.174 303.745 128.97 303.6 128.782C303.561 128.731 303.518 128.688 303.478 128.637C302.906 127.919 302.302 127.229 301.687 126.563C301.624 126.496 301.569 126.418 301.506 126.351C300.848 125.657 300.17 124.995 299.46 124.36L282.736 109.408C283.444 110.043 284.126 110.707 284.782 111.399C284.849 111.47 284.912 111.552 284.978 111.627C285.598 112.293 286.198 112.979 286.77 113.7C286.954 113.932 287.123 114.183 287.303 114.422C287.774 115.045 288.236 115.68 288.671 116.343C289.107 117.005 289.526 117.644 289.922 118.33C290.514 119.354 291.016 120.443 291.521 121.529C291.89 122.313 292.239 123.097 292.564 123.932C292.921 124.834 293.258 125.751 293.564 126.677C293.713 127.139 293.87 127.598 294.007 128.068C294.399 129.464 294.764 130.895 295.058 132.381C295.085 132.51 295.12 132.632 295.148 132.773C295.45 134.341 295.669 135.999 295.846 137.677C295.885 138.042 295.924 138.406 295.955 138.775C296.104 140.449 296.202 142.162 296.23 143.93C296.23 144.204 296.23 144.491 296.23 144.769C296.23 146.41 296.188 148.093 296.104 149.818C296.085 150.14 296.077 150.453 296.057 150.779C295.936 152.66 295.744 154.597 295.504 156.573C295.454 157 295.391 157.431 295.332 157.867C295.058 159.917 294.744 161.999 294.344 164.139L289.506 190.197C289.252 191.569 288.938 192.863 288.648 194.192C288.295 195.792 287.927 197.371 287.527 198.896C287.276 199.849 287.009 200.786 286.743 201.715C286.319 203.177 285.864 204.604 285.39 206C285.029 207.051 284.677 208.109 284.292 209.136C284.116 209.599 283.94 210.058 283.755 210.512C283.065 212.241 282.344 213.931 281.568 215.542C280.677 217.372 279.732 219.14 278.733 220.846C277.804 222.414 276.824 223.912 275.801 225.351C275.57 225.676 275.323 225.97 275.091 226.288C274.307 227.346 273.492 228.377 272.653 229.361C272.336 229.753 272.006 230.102 271.681 230.467C270.65 231.607 269.603 232.729 268.498 233.764C267.27 234.908 266.004 235.963 264.707 236.955C264.405 237.19 264.087 237.398 263.777 237.621C262.839 238.309 261.884 238.954 260.912 239.558C260.41 239.868 259.9 240.166 259.391 240.456C258.607 240.899 257.823 241.302 257.038 241.698C256.254 242.094 255.384 242.482 254.541 242.839C253.463 243.29 252.385 243.741 251.272 244.109C251.154 244.145 251.044 244.192 250.931 244.227C249.488 244.693 248.01 245.07 246.505 245.403C246.262 245.458 246.019 245.517 245.772 245.564C244.303 245.859 242.803 246.088 241.271 246.25L240.436 246.328C238.868 246.473 237.3 246.556 235.696 246.563C235.469 246.563 235.238 246.563 235.01 246.563C233.309 246.563 231.58 246.489 229.812 246.332C219.013 245.376 210.388 242.008 203.938 236.23L220.635 251.185C227.082 256.961 235.707 260.329 246.509 261.288C248.277 261.445 250.005 261.512 251.707 261.519H252.393C254.004 261.519 255.58 261.425 257.133 261.284L257.968 261.202C259.497 261.037 260.998 260.81 262.468 260.52L263.201 260.359C264.707 260.034 266.185 259.653 267.627 259.183C267.741 259.148 267.851 259.104 267.964 259.065C268.701 258.822 269.434 258.571 270.156 258.281C270.548 258.136 270.873 257.94 271.238 257.783C272.085 257.43 272.912 257.046 273.735 256.643C274.127 256.446 274.55 256.298 274.946 256.09C275.342 255.882 275.73 255.623 276.123 255.404C276.632 255.11 277.142 254.812 277.644 254.502C277.965 254.302 278.302 254.134 278.62 253.922C279.263 253.498 279.882 253.024 280.513 252.565C280.819 252.342 281.137 252.134 281.438 251.903C281.552 251.817 281.67 251.742 281.78 251.656C282.78 250.872 283.758 250.047 284.712 249.182L285.229 248.708C285.982 248.002 286.723 247.269 287.44 246.512C287.778 246.16 288.087 245.772 288.413 245.411C288.738 245.05 289.067 244.682 289.385 244.309C289.62 244.035 289.867 243.784 290.094 243.502C290.69 242.776 291.251 242 291.819 241.232C292.055 240.918 292.302 240.62 292.533 240.299C292.596 240.209 292.666 240.126 292.729 240.04C293.67 238.699 294.571 237.302 295.434 235.849L295.461 235.79C296.462 234.099 297.408 232.331 298.3 230.486C298.298 230.477 298.298 230.468 298.3 230.459C299.084 228.855 299.785 227.174 300.472 225.457C300.656 225.006 300.832 224.543 301.009 224.08C301.185 223.618 301.401 223.085 301.593 222.571C301.785 222.058 301.926 221.481 302.102 220.956C302.581 219.56 303.035 218.137 303.459 216.671C303.729 215.746 303.996 214.809 304.243 213.852C304.635 212.32 305.027 210.744 305.364 209.148C305.505 208.505 305.682 207.909 305.815 207.251C305.948 206.592 306.089 205.859 306.207 205.153L311.06 179.103C311.437 176.955 311.75 174.877 312.025 172.823Z" fill="url(#paint38_linear_12_21)"/>
<path d="M289.922 118.326C296.456 129.625 297.928 144.898 294.34 164.147L289.506 190.197C285.907 209.504 278.903 224.024 268.493 233.76C258.084 243.495 245.183 247.677 229.792 246.305C214.283 244.927 203.263 238.587 196.732 227.283C190.201 215.98 188.718 200.743 192.283 181.573L197.152 155.444C200.756 136.104 207.761 121.575 218.168 111.858C228.575 102.141 241.512 97.9592 256.979 99.313C272.415 100.698 283.396 107.036 289.922 118.326ZM256.278 192.33L262.848 156.973C264.766 146.689 264.888 138.895 263.213 133.592C261.537 128.289 257.861 125.378 252.185 124.858C246.642 124.364 242.165 126.367 238.754 130.868C235.343 135.368 232.659 142.385 230.702 151.92L223.892 188.472C221.906 199.141 221.759 207.063 223.453 212.237C225.147 217.412 228.836 220.257 234.52 220.772C240.008 221.258 244.517 219.204 248.018 214.621C251.518 210.038 254.29 202.609 256.25 192.33" fill="url(#paint39_linear_12_21)"/>
<path d="M289.922 118.326C283.403 107.028 272.419 100.697 256.968 99.3324C243.231 98.1171 231.488 101.291 221.74 108.855C231.196 102.1 242.423 99.2619 255.454 100.422C270.903 101.792 281.89 108.122 288.416 119.412C294.942 130.703 296.416 145.976 292.838 165.233L287.985 191.283C284.391 210.589 277.387 225.11 266.972 234.846C265.816 235.928 264.62 236.915 263.397 237.86C265.182 236.605 266.885 235.235 268.493 233.76C278.877 224.037 285.881 209.516 289.506 190.197L294.359 164.147C297.935 144.903 296.455 129.63 289.922 118.326Z" fill="url(#paint40_linear_12_21)"/>
<path d="M230.702 151.92C232.683 142.38 235.368 135.363 238.758 130.867C239.552 129.806 240.466 128.84 241.483 127.99C239.845 129.044 238.414 130.387 237.257 131.953C233.859 136.446 231.174 143.463 229.2 153.005L222.391 189.558C220.402 200.224 220.257 208.146 221.956 213.323C223.654 218.501 227.342 221.345 233.019 221.858C237.104 222.218 240.645 221.173 243.643 218.721C240.985 220.394 237.944 221.079 234.52 220.776C228.838 220.271 225.149 217.426 223.453 212.241C221.757 207.056 221.903 199.134 223.892 188.476L230.702 151.92Z" fill="url(#paint41_linear_12_21)"/>
<path d="M164.927 388.686L199.159 384.189L234.473 394.288L200.237 398.785L164.927 388.686Z" fill="url(#paint42_linear_12_21)"/>
<path d="M223.269 434.283L257.505 429.787L251.127 460.169L216.891 464.662L223.269 434.283Z" fill="url(#paint43_linear_12_21)"/>
<path d="M240.691 318.113L274.923 313.62L199.159 384.189L164.927 388.686L240.691 318.113Z" fill="url(#paint44_linear_12_21)"/>
<path d="M205.925 371.699L240.157 367.207L268.917 375.432L234.685 379.924L205.925 371.699Z" fill="url(#paint45_linear_12_21)"/>
<path d="M234.685 379.924L268.917 375.432L263.233 402.513L228.997 407.01L234.685 379.924Z" fill="url(#paint46_linear_12_21)"/>
<path d="M250.405 413.129L284.637 408.636L278.914 435.91L244.678 440.403L250.405 413.129Z" fill="url(#paint47_linear_12_21)"/>
<path d="M228.997 407.01L263.233 402.513L284.637 408.636L250.405 413.129L228.997 407.01Z" fill="url(#paint48_linear_12_21)"/>
<path d="M208.74 308.975L242.976 304.482L274.923 313.62L240.691 318.113L208.74 308.975Z" fill="url(#paint49_linear_12_21)"/>
<path d="M228.997 407.01L250.405 413.129L244.678 440.403L223.269 434.283L216.891 464.662L187.206 456.174L193.584 425.792L122.768 405.539L127.5 383.01L208.74 308.975L240.691 318.113L164.927 388.686L200.237 398.785L205.926 371.699L234.685 379.924L228.997 407.01Z" fill="url(#paint50_linear_12_21)"/>
<g style="mix-blend-mode:screen">
<path d="M239.656 318.728L163.892 389.302L199.202 399.4L199.383 398.542L164.927 388.686L240.691 318.113L208.74 308.975L207.98 309.672L239.656 318.728Z" fill="url(#paint51_linear_12_21)"/>
<path d="M205.745 372.562L233.65 380.54L227.961 407.625L249.37 413.745L243.823 440.16L244.678 440.403L250.405 413.129L228.996 407.01L234.685 379.924L205.925 371.699L205.745 372.562Z" fill="url(#paint52_linear_12_21)"/>
<path d="M222.234 434.899L216.04 464.418L216.891 464.662L223.089 435.142L222.234 434.899Z" fill="url(#paint53_linear_12_21)"/>
</g>
</g>
<defs>
<linearGradient id="paint0_linear_12_21" x1="110.316" y1="82.0014" x2="101.069" y2="27.2095" gradientUnits="userSpaceOnUse">
<stop stop-color="#C3852F"/>
<stop offset="0.07" stop-color="#DBAD50"/>
<stop offset="0.13" stop-color="#EECC69"/>
<stop offset="0.18" stop-color="#F9DF78"/>
<stop offset="0.22" stop-color="#FDE67E"/>
<stop offset="0.31" stop-color="#FAE27B"/>
<stop offset="0.39" stop-color="#F2D772"/>
<stop offset="0.48" stop-color="#E4C362"/>
<stop offset="0.56" stop-color="#D1A84D"/>
<stop offset="0.61" stop-color="#C1933C"/>
<stop offset="0.62" stop-color="#BE8F39"/>
<stop offset="0.71" stop-color="#A26B1F"/>
<stop offset="0.79" stop-color="#915410"/>
<stop offset="0.83" stop-color="#8B4C0A"/>
<stop offset="0.9" stop-color="#9A5F09"/>
<stop offset="1" stop-color="#AA7307"/>
</linearGradient>
<linearGradient id="paint1_linear_12_21" x1="216.726" y1="94.5996" x2="68.4073" y2="248.458" gradientUnits="userSpaceOnUse">
<stop stop-color="#C3852F"/>
<stop offset="0.07" stop-color="#DBAD50"/>
<stop offset="0.13" stop-color="#EECC69"/>
<stop offset="0.18" stop-color="#F9DF78"/>
<stop offset="0.22" stop-color="#FDE67E"/>
<stop offset="0.31" stop-color="#FAE27B"/>
<stop offset="0.39" stop-color="#F2D772"/>
<stop offset="0.48" stop-color="#E4C362"/>
<stop offset="0.56" stop-color="#D1A84D"/>
<stop offset="0.61" stop-color="#C1933C"/>
<stop offset="0.62" stop-color="#BE8F39"/>
<stop offset="0.71" stop-color="#A26B1F"/>
<stop offset="0.79" stop-color="#915410"/>
<stop offset="0.83" stop-color="#8B4C0A"/>
<stop offset="0.9" stop-color="#9A5F09"/>
<stop offset="1" stop-color="#AA7307"/>
</linearGradient>
<linearGradient id="paint2_linear_12_21" x1="243.172" y1="198.862" x2="64.9232" y2="68.8616" gradientUnits="userSpaceOnUse">
<stop stop-color="#C3852F"/>
<stop offset="0.07" stop-color="#DBAD50"/>
<stop offset="0.13" stop-color="#EECC69"/>
<stop offset="0.18" stop-color="#F9DF78"/>
<stop offset="0.22" stop-color="#FDE67E"/>
<stop offset="0.31" stop-color="#FAE27B"/>
<stop offset="0.39" stop-color="#F2D772"/>
<stop offset="0.48" stop-color="#E4C362"/>
<stop offset="0.56" stop-color="#D1A84D"/>
<stop offset="0.61" stop-color="#C1933C"/>
<stop offset="0.62" stop-color="#BE8F39"/>
<stop offset="0.71" stop-color="#A26B1F"/>
<stop offset="0.79" stop-color="#915410"/>
<stop offset="0.83" stop-color="#8B4C0A"/>
<stop offset="0.9" stop-color="#9A5F09"/>
<stop offset="1" stop-color="#AA7307"/>
</linearGradient>
<linearGradient id="paint3_linear_12_21" x1="108.549" y1="11.4854" x2="155.325" y2="119.153" gradientUnits="userSpaceOnUse">
<stop stop-color="#C3852F"/>
<stop offset="0.07" stop-color="#DBAD50"/>
<stop offset="0.13" stop-color="#EECC69"/>
<stop offset="0.18" stop-color="#F9DF78"/>
<stop offset="0.22" stop-color="#FDE67E"/>
<stop offset="0.31" stop-color="#FAE27B"/>
<stop offset="0.39" stop-color="#F2D772"/>
<stop offset="0.48" stop-color="#E4C362"/>
<stop offset="0.56" stop-color="#D1A84D"/>
<stop offset="0.61" stop-color="#C1933C"/>
<stop offset="0.62" stop-color="#BE8F39"/>
<stop offset="0.71" stop-color="#A26B1F"/>
<stop offset="0.79" stop-color="#915410"/>
<stop offset="0.83" stop-color="#8B4C0A"/>
<stop offset="0.9" stop-color="#9A5F09"/>
<stop offset="1" stop-color="#AA7307"/>
</linearGradient>
<linearGradient id="paint4_linear_12_21" x1="244.381" y1="-18.2306" x2="-38.1515" y2="219.326" gradientUnits="userSpaceOnUse">
<stop stop-color="#C3852F"/>
<stop offset="0.07" stop-color="#DBAD50"/>
<stop offset="0.13" stop-color="#EECC69"/>
<stop offset="0.18" stop-color="#F9DF78"/>
<stop offset="0.22" stop-color="#FDE67E"/>
<stop offset="0.31" stop-color="#FAE27B"/>
<stop offset="0.39" stop-color="#F2D772"/>
<stop offset="0.48" stop-color="#E4C362"/>
<stop offset="0.56" stop-color="#D1A84D"/>
<stop offset="0.61" stop-color="#C1933C"/>
<stop offset="0.62" stop-color="#BE8F39"/>
<stop offset="0.71" stop-color="#A26B1F"/>
<stop offset="0.79" stop-color="#915410"/>
<stop offset="0.83" stop-color="#8B4C0A"/>
<stop offset="0.9" stop-color="#9A5F09"/>
<stop offset="1" stop-color="#AA7307"/>
</linearGradient>
<linearGradient id="paint5_linear_12_21" x1="176.577" y1="-3.10268" x2="57.3762" y2="97.1229" gradientUnits="userSpaceOnUse">
<stop stop-color="#EABD54"/>
<stop offset="0.06" stop-color="#F0CB66"/>
<stop offset="0.18" stop-color="#FBE485"/>
<stop offset="0.25" stop-color="#FFED91"/>
<stop offset="0.43" stop-color="#FEEC8F"/>
<stop offset="0.5" stop-color="#FCE688"/>
<stop offset="0.54" stop-color="#F8DD7D"/>
<stop offset="0.58" stop-color="#F2D06C"/>
<stop offset="0.61" stop-color="#EABD54"/>
<stop offset="0.66" stop-color="#D9AA45"/>
<stop offset="0.81" stop-color="#9F6D13"/>
<stop offset="0.88" stop-color="#895500"/>
<stop offset="0.89" stop-color="#936009"/>
<stop offset="0.94" stop-color="#C29231"/>
<stop offset="0.98" stop-color="#DFB14B"/>
<stop offset="1" stop-color="#EABD54"/>
</linearGradient>
<linearGradient id="paint6_linear_12_21" x1="66.7807" y1="56.7158" x2="119.016" y2="41.2829" gradientUnits="userSpaceOnUse">
<stop stop-color="#EABD54"/>
<stop offset="0.06" stop-color="#F0CB66"/>
<stop offset="0.18" stop-color="#FBE485"/>
<stop offset="0.25" stop-color="#FFED91"/>
<stop offset="0.43" stop-color="#FEEC8F"/>
<stop offset="0.5" stop-color="#FCE688"/>
<stop offset="0.54" stop-color="#F8DD7D"/>
<stop offset="0.58" stop-color="#F2D06C"/>
<stop offset="0.61" stop-color="#EABD54"/>
<stop offset="0.66" stop-color="#D9AA45"/>
<stop offset="0.81" stop-color="#9F6D13"/>
<stop offset="0.88" stop-color="#895500"/>
<stop offset="0.89" stop-color="#936009"/>
<stop offset="0.94" stop-color="#C29231"/>
<stop offset="0.98" stop-color="#DFB14B"/>
<stop offset="1" stop-color="#EABD54"/>
</linearGradient>
<linearGradient id="paint7_linear_12_21" x1="180.318" y1="102.67" x2="93.0799" y2="176.024" gradientUnits="userSpaceOnUse">
<stop stop-color="#EABD54"/>
<stop offset="0.06" stop-color="#F0CB66"/>
<stop offset="0.18" stop-color="#FBE485"/>
<stop offset="0.25" stop-color="#FFED91"/>
<stop offset="0.43" stop-color="#FEEC8F"/>
<stop offset="0.5" stop-color="#FCE688"/>
<stop offset="0.54" stop-color="#F8DD7D"/>
<stop offset="0.58" stop-color="#F2D06C"/>
<stop offset="0.61" stop-color="#EABD54"/>
<stop offset="0.66" stop-color="#D9AA45"/>
<stop offset="0.81" stop-color="#9F6D13"/>
<stop offset="0.88" stop-color="#895500"/>
<stop offset="0.89" stop-color="#936009"/>
<stop offset="0.94" stop-color="#C29231"/>
<stop offset="0.98" stop-color="#DFB14B"/>
<stop offset="1" stop-color="#EABD54"/>
</linearGradient>
<linearGradient id="paint8_linear_12_21" x1="136.159" y1="289.928" x2="68.2419" y2="366.456" gradientUnits="userSpaceOnUse">
<stop stop-color="#C3852F"/>
<stop offset="0.07" stop-color="#DBAD50"/>
<stop offset="0.13" stop-color="#EECC69"/>
<stop offset="0.18" stop-color="#F9DF78"/>
<stop offset="0.22" stop-color="#FDE67E"/>
<stop offset="0.31" stop-color="#FAE27B"/>
<stop offset="0.39" stop-color="#F2D772"/>
<stop offset="0.48" stop-color="#E4C362"/>
<stop offset="0.56" stop-color="#D1A84D"/>
<stop offset="0.61" stop-color="#C1933C"/>
<stop offset="0.62" stop-color="#BE8F39"/>
<stop offset="0.71" stop-color="#A26B1F"/>
<stop offset="0.79" stop-color="#915410"/>
<stop offset="0.83" stop-color="#8B4C0A"/>
<stop offset="0.9" stop-color="#9A5F09"/>
<stop offset="1" stop-color="#AA7307"/>
</linearGradient>
<linearGradient id="paint9_linear_12_21" x1="19.528" y1="449.364" x2="72.7458" y2="226.975" gradientUnits="userSpaceOnUse">
<stop stop-color="#C3852F"/>
<stop offset="0.07" stop-color="#DBAD50"/>
<stop offset="0.13" stop-color="#EECC69"/>
<stop offset="0.18" stop-color="#F9DF78"/>
<stop offset="0.22" stop-color="#FDE67E"/>
<stop offset="0.31" stop-color="#FAE27B"/>
<stop offset="0.39" stop-color="#F2D772"/>
<stop offset="0.48" stop-color="#E4C362"/>
<stop offset="0.56" stop-color="#D1A84D"/>
<stop offset="0.61" stop-color="#C1933C"/>
<stop offset="0.62" stop-color="#BE8F39"/>
<stop offset="0.71" stop-color="#A26B1F"/>
<stop offset="0.79" stop-color="#915410"/>
<stop offset="0.83" stop-color="#8B4C0A"/>
<stop offset="0.9" stop-color="#9A5F09"/>
<stop offset="1" stop-color="#AA7307"/>
</linearGradient>
<linearGradient id="paint10_linear_12_21" x1="50.3968" y1="284.065" x2="23.4913" y2="454.218" gradientUnits="userSpaceOnUse">
<stop stop-color="#C3852F"/>
<stop offset="0.07" stop-color="#DBAD50"/>
<stop offset="0.13" stop-color="#EECC69"/>
<stop offset="0.18" stop-color="#F9DF78"/>
<stop offset="0.22" stop-color="#FDE67E"/>
<stop offset="0.31" stop-color="#FAE27B"/>
<stop offset="0.39" stop-color="#F2D772"/>
<stop offset="0.48" stop-color="#E4C362"/>
<stop offset="0.56" stop-color="#D1A84D"/>
<stop offset="0.61" stop-color="#C1933C"/>
<stop offset="0.62" stop-color="#BE8F39"/>
<stop offset="0.71" stop-color="#A26B1F"/>
<stop offset="0.79" stop-color="#915410"/>
<stop offset="0.83" stop-color="#8B4C0A"/>
<stop offset="0.9" stop-color="#9A5F09"/>
<stop offset="1" stop-color="#AA7307"/>
</linearGradient>
<linearGradient id="paint11_linear_12_21" x1="40.2706" y1="286.928" x2="42.7964" y2="225.286" gradientUnits="userSpaceOnUse">
<stop stop-color="#C3852F"/>
<stop offset="0.07" stop-color="#DBAD50"/>
<stop offset="0.13" stop-color="#EECC69"/>
<stop offset="0.18" stop-color="#F9DF78"/>
<stop offset="0.22" stop-color="#FDE67E"/>
<stop offset="0.31" stop-color="#FAE27B"/>
<stop offset="0.39" stop-color="#F2D772"/>
<stop offset="0.48" stop-color="#E4C362"/>
<stop offset="0.56" stop-color="#D1A84D"/>
<stop offset="0.61" stop-color="#C1933C"/>
<stop offset="0.62" stop-color="#BE8F39"/>
<stop offset="0.71" stop-color="#A26B1F"/>
<stop offset="0.79" stop-color="#915410"/>
<stop offset="0.83" stop-color="#8B4C0A"/>
<stop offset="0.9" stop-color="#9A5F09"/>
<stop offset="1" stop-color="#AA7307"/>
</linearGradient>
<linearGradient id="paint12_linear_12_21" x1="-33.0298" y1="246.151" x2="308.705" y2="450.425" gradientUnits="userSpaceOnUse">
<stop stop-color="#C3852F"/>
<stop offset="0.07" stop-color="#DBAD50"/>
<stop offset="0.13" stop-color="#EECC69"/>
<stop offset="0.18" stop-color="#F9DF78"/>
<stop offset="0.22" stop-color="#FDE67E"/>
<stop offset="0.31" stop-color="#FAE27B"/>
<stop offset="0.39" stop-color="#F2D772"/>
<stop offset="0.48" stop-color="#E4C362"/>
<stop offset="0.56" stop-color="#D1A84D"/>
<stop offset="0.61" stop-color="#C1933C"/>
<stop offset="0.62" stop-color="#BE8F39"/>
<stop offset="0.71" stop-color="#A26B1F"/>
<stop offset="0.79" stop-color="#915410"/>
<stop offset="0.83" stop-color="#8B4C0A"/>
<stop offset="0.9" stop-color="#9A5F09"/>
<stop offset="1" stop-color="#AA7307"/>
</linearGradient>
<linearGradient id="paint13_linear_12_21" x1="81.8259" y1="330.182" x2="155.191" y2="374.035" gradientUnits="userSpaceOnUse">
<stop stop-color="#EABD54"/>
<stop offset="0.06" stop-color="#F0CB66"/>
<stop offset="0.18" stop-color="#FBE485"/>
<stop offset="0.25" stop-color="#FFED91"/>
<stop offset="0.43" stop-color="#FEEC8F"/>
<stop offset="0.5" stop-color="#FCE688"/>
<stop offset="0.54" stop-color="#F8DD7D"/>
<stop offset="0.58" stop-color="#F2D06C"/>
<stop offset="0.61" stop-color="#EABD54"/>
<stop offset="0.66" stop-color="#D9AA45"/>
<stop offset="0.81" stop-color="#9F6D13"/>
<stop offset="0.88" stop-color="#895500"/>
<stop offset="0.89" stop-color="#936009"/>
<stop offset="0.94" stop-color="#C29231"/>
<stop offset="0.98" stop-color="#DFB14B"/>
<stop offset="1" stop-color="#EABD54"/>
</linearGradient>
<linearGradient id="paint14_linear_12_21" x1="23.7764" y1="297.832" x2="150.026" y2="373.3" gradientUnits="userSpaceOnUse">
<stop stop-color="#EABD54"/>
<stop offset="0.06" stop-color="#F0CB66"/>
<stop offset="0.18" stop-color="#FBE485"/>
<stop offset="0.25" stop-color="#FFED91"/>
<stop offset="0.43" stop-color="#FEEC8F"/>
<stop offset="0.5" stop-color="#FCE688"/>
<stop offset="0.54" stop-color="#F8DD7D"/>
<stop offset="0.58" stop-color="#F2D06C"/>
<stop offset="0.61" stop-color="#EABD54"/>
<stop offset="0.66" stop-color="#D9AA45"/>
<stop offset="0.81" stop-color="#9F6D13"/>
<stop offset="0.88" stop-color="#895500"/>
<stop offset="0.89" stop-color="#936009"/>
<stop offset="0.94" stop-color="#C29231"/>
<stop offset="0.98" stop-color="#DFB14B"/>
<stop offset="1" stop-color="#EABD54"/>
</linearGradient>
<linearGradient id="paint15_linear_12_21" x1="29.6959" y1="241.208" x2="107.282" y2="287.585" gradientUnits="userSpaceOnUse">
<stop stop-color="#EABD54"/>
<stop offset="0.06" stop-color="#F0CB66"/>
<stop offset="0.18" stop-color="#FBE485"/>
<stop offset="0.25" stop-color="#FFED91"/>
<stop offset="0.43" stop-color="#FEEC8F"/>
<stop offset="0.5" stop-color="#FCE688"/>
<stop offset="0.54" stop-color="#F8DD7D"/>
<stop offset="0.58" stop-color="#F2D06C"/>
<stop offset="0.61" stop-color="#EABD54"/>
<stop offset="0.66" stop-color="#D9AA45"/>
<stop offset="0.81" stop-color="#9F6D13"/>
<stop offset="0.88" stop-color="#895500"/>
<stop offset="0.89" stop-color="#936009"/>
<stop offset="0.94" stop-color="#C29231"/>
<stop offset="0.98" stop-color="#DFB14B"/>
<stop offset="1" stop-color="#EABD54"/>
</linearGradient>
<radialGradient id="paint16_radial_12_21" cx="0" cy="0" r="1" gradientUnits="userSpaceOnUse" gradientTransform="translate(106.218 250.949) scale(70.8202)">
<stop offset="0.27" stop-color="#690B02"/>
<stop offset="0.39" stop-color="#8F4941"/>
<stop offset="0.51" stop-color="#B18079"/>
<stop offset="0.62" stop-color="#CDADA8"/>
<stop offset="0.73" stop-color="#E3D1CD"/>
<stop offset="0.84" stop-color="#F2EAE7"/>
<stop offset="0.93" stop-color="#FCFAF6"/>
<stop offset="1" stop-color="#FFFFFC"/>
</radialGradient>
<radialGradient id="paint17_radial_12_21" cx="0" cy="0" r="1" gradientUnits="userSpaceOnUse" gradientTransform="translate(181.445 101.049) scale(70.8203)">
<stop offset="0.27" stop-color="#690B02"/>
<stop offset="0.39" stop-color="#8F4941"/>
<stop offset="0.51" stop-color="#B18079"/>
<stop offset="0.62" stop-color="#CDADA8"/>
<stop offset="0.73" stop-color="#E3D1CD"/>
<stop offset="0.84" stop-color="#F2EAE7"/>
<stop offset="0.93" stop-color="#FCFAF6"/>
<stop offset="1" stop-color="#FFFFFC"/>
</radialGradient>
<radialGradient id="paint18_radial_12_21" cx="0" cy="0" r="1" gradientUnits="userSpaceOnUse" gradientTransform="translate(176.447 251.623) scale(93.4443)">
<stop offset="0.33" stop-color="#FF0B08"/>
<stop offset="0.77" stop-color="#BE0100"/>
<stop offset="1" stop-color="#EC0503"/>
</radialGradient>
<radialGradient id="paint19_radial_12_21" cx="0" cy="0" r="1" gradientUnits="userSpaceOnUse" gradientTransform="translate(205.187 233.876) rotate(-39.9079) scale(36.9351 51.5769)">
<stop stop-color="#8A8A8A"/>
<stop offset="0.16" stop-color="#747474"/>
<stop offset="1"/>
</radialGradient>
<radialGradient id="paint20_radial_12_21" cx="0" cy="0" r="1" gradientUnits="userSpaceOnUse" gradientTransform="translate(141.15 219.882) rotate(-117.277) scale(22.2952 30.8779)">
<stop stop-color="#8A8A8A"/>
<stop offset="0.16" stop-color="#747474"/>
<stop offset="1"/>
</radialGradient>
<linearGradient id="paint21_linear_12_21" x1="117.221" y1="163.986" x2="224.37" y2="364.521" gradientUnits="userSpaceOnUse">
<stop stop-color="#F2D977"/>
<stop offset="0.04" stop-color="#E8CB65"/>
<stop offset="0.1" stop-color="#DAB74C"/>
<stop offset="0.16" stop-color="#D2AB3D"/>
<stop offset="0.21" stop-color="#CFA738"/>
<stop offset="0.34" stop-color="#E1C863"/>
<stop offset="0.56" stop-color="#FFFFAA"/>
<stop offset="0.6" stop-color="#FEFBA5"/>
<stop offset="0.66" stop-color="#FAF096"/>
<stop offset="0.72" stop-color="#F3DD7D"/>
<stop offset="0.79" stop-color="#EAC45A"/>
<stop offset="0.84" stop-color="#E1AB39"/>
<stop offset="0.89" stop-color="#D7A136"/>
<stop offset="0.96" stop-color="#BD882D"/>
<stop offset="1" stop-color="#AC7828"/>
</linearGradient>
<linearGradient id="paint22_linear_12_21" x1="139.025" y1="152.355" x2="246.167" y2="352.874" gradientUnits="userSpaceOnUse">
<stop stop-color="#F2D977"/>
<stop offset="0.04" stop-color="#E8CB65"/>
<stop offset="0.1" stop-color="#DAB74C"/>
<stop offset="0.16" stop-color="#D2AB3D"/>
<stop offset="0.21" stop-color="#CFA738"/>
<stop offset="0.34" stop-color="#E1C863"/>
<stop offset="0.56" stop-color="#FFFFAA"/>
<stop offset="0.6" stop-color="#FEFBA5"/>
<stop offset="0.66" stop-color="#FAF096"/>
<stop offset="0.72" stop-color="#F3DD7D"/>
<stop offset="0.79" stop-color="#EAC45A"/>
<stop offset="0.84" stop-color="#E1AB39"/>
<stop offset="0.89" stop-color="#D7A136"/>
<stop offset="0.96" stop-color="#BD882D"/>
<stop offset="1" stop-color="#AC7828"/>
</linearGradient>
<linearGradient id="paint23_linear_12_21" x1="138.586" y1="152.586" x2="245.728" y2="353.105" gradientUnits="userSpaceOnUse">
<stop stop-color="#F2D977"/>
<stop offset="0.04" stop-color="#E8CB65"/>
<stop offset="0.1" stop-color="#DAB74C"/>
<stop offset="0.16" stop-color="#D2AB3D"/>
<stop offset="0.21" stop-color="#CFA738"/>
<stop offset="0.34" stop-color="#E1C863"/>
<stop offset="0.56" stop-color="#FFFFAA"/>
<stop offset="0.6" stop-color="#FEFBA5"/>
<stop offset="0.66" stop-color="#FAF096"/>
<stop offset="0.72" stop-color="#F3DD7D"/>
<stop offset="0.79" stop-color="#EAC45A"/>
<stop offset="0.84" stop-color="#E1AB39"/>
<stop offset="0.89" stop-color="#D7A136"/>
<stop offset="0.96" stop-color="#BD882D"/>
<stop offset="1" stop-color="#AC7828"/>
</linearGradient>
<linearGradient id="paint24_linear_12_21" x1="135.948" y1="153.997" x2="243.094" y2="354.517" gradientUnits="userSpaceOnUse">
<stop stop-color="#F2D977"/>
<stop offset="0.04" stop-color="#E8CB65"/>
<stop offset="0.1" stop-color="#DAB74C"/>
<stop offset="0.16" stop-color="#D2AB3D"/>
<stop offset="0.21" stop-color="#CFA738"/>
<stop offset="0.34" stop-color="#E1C863"/>
<stop offset="0.56" stop-color="#FFFFAA"/>
<stop offset="0.6" stop-color="#FEFBA5"/>
<stop offset="0.66" stop-color="#FAF096"/>
<stop offset="0.72" stop-color="#F3DD7D"/>
<stop offset="0.79" stop-color="#EAC45A"/>
<stop offset="0.84" stop-color="#E1AB39"/>
<stop offset="0.89" stop-color="#D7A136"/>
<stop offset="0.96" stop-color="#BD882D"/>
<stop offset="1" stop-color="#AC7828"/>
</linearGradient>
<linearGradient id="paint25_linear_12_21" x1="131.459" y1="156.396" x2="238.601" y2="356.916" gradientUnits="userSpaceOnUse">
<stop stop-color="#F2D977"/>
<stop offset="0.04" stop-color="#E8CB65"/>
<stop offset="0.1" stop-color="#DAB74C"/>
<stop offset="0.16" stop-color="#D2AB3D"/>
<stop offset="0.21" stop-color="#CFA738"/>
<stop offset="0.34" stop-color="#E1C863"/>
<stop offset="0.56" stop-color="#FFFFAA"/>
<stop offset="0.6" stop-color="#FEFBA5"/>
<stop offset="0.66" stop-color="#FAF096"/>
<stop offset="0.72" stop-color="#F3DD7D"/>
<stop offset="0.79" stop-color="#EAC45A"/>
<stop offset="0.84" stop-color="#E1AB39"/>
<stop offset="0.89" stop-color="#D7A136"/>
<stop offset="0.96" stop-color="#BD882D"/>
<stop offset="1" stop-color="#AC7828"/>
</linearGradient>
<linearGradient id="paint26_linear_12_21" x1="126.461" y1="159.07" x2="233.603" y2="359.586" gradientUnits="userSpaceOnUse">
<stop stop-color="#F2D977"/>
<stop offset="0.04" stop-color="#E8CB65"/>
<stop offset="0.1" stop-color="#DAB74C"/>
<stop offset="0.16" stop-color="#D2AB3D"/>
<stop offset="0.21" stop-color="#CFA738"/>
<stop offset="0.34" stop-color="#E1C863"/>
<stop offset="0.56" stop-color="#FFFFAA"/>
<stop offset="0.6" stop-color="#FEFBA5"/>
<stop offset="0.66" stop-color="#FAF096"/>
<stop offset="0.72" stop-color="#F3DD7D"/>
<stop offset="0.79" stop-color="#EAC45A"/>
<stop offset="0.84" stop-color="#E1AB39"/>
<stop offset="0.89" stop-color="#D7A136"/>
<stop offset="0.96" stop-color="#BD882D"/>
<stop offset="1" stop-color="#AC7828"/>
</linearGradient>
<linearGradient id="paint27_linear_12_21" x1="120.549" y1="162.226" x2="227.691" y2="362.741" gradientUnits="userSpaceOnUse">
<stop stop-color="#F2D977"/>
<stop offset="0.04" stop-color="#E8CB65"/>
<stop offset="0.1" stop-color="#DAB74C"/>
<stop offset="0.16" stop-color="#D2AB3D"/>
<stop offset="0.21" stop-color="#CFA738"/>
<stop offset="0.34" stop-color="#E1C863"/>
<stop offset="0.56" stop-color="#FFFFAA"/>
<stop offset="0.6" stop-color="#FEFBA5"/>
<stop offset="0.66" stop-color="#FAF096"/>
<stop offset="0.72" stop-color="#F3DD7D"/>
<stop offset="0.79" stop-color="#EAC45A"/>
<stop offset="0.84" stop-color="#E1AB39"/>
<stop offset="0.89" stop-color="#D7A136"/>
<stop offset="0.96" stop-color="#BD882D"/>
<stop offset="1" stop-color="#AC7828"/>
</linearGradient>
<linearGradient id="paint28_linear_12_21" x1="113.849" y1="165.805" x2="220.991" y2="366.325" gradientUnits="userSpaceOnUse">
<stop stop-color="#F2D977"/>
<stop offset="0.04" stop-color="#E8CB65"/>
<stop offset="0.1" stop-color="#DAB74C"/>
<stop offset="0.16" stop-color="#D2AB3D"/>
<stop offset="0.21" stop-color="#CFA738"/>
<stop offset="0.34" stop-color="#E1C863"/>
<stop offset="0.56" stop-color="#FFFFAA"/>
<stop offset="0.6" stop-color="#FEFBA5"/>
<stop offset="0.66" stop-color="#FAF096"/>
<stop offset="0.72" stop-color="#F3DD7D"/>
<stop offset="0.79" stop-color="#EAC45A"/>
<stop offset="0.84" stop-color="#E1AB39"/>
<stop offset="0.89" stop-color="#D7A136"/>
<stop offset="0.96" stop-color="#BD882D"/>
<stop offset="1" stop-color="#AC7828"/>
</linearGradient>
<linearGradient id="paint29_linear_12_21" x1="107.714" y1="169.087" x2="214.856" y2="369.602" gradientUnits="userSpaceOnUse">
<stop stop-color="#F2D977"/>
<stop offset="0.04" stop-color="#E8CB65"/>
<stop offset="0.1" stop-color="#DAB74C"/>
<stop offset="0.16" stop-color="#D2AB3D"/>
<stop offset="0.21" stop-color="#CFA738"/>
<stop offset="0.34" stop-color="#E1C863"/>
<stop offset="0.56" stop-color="#FFFFAA"/>
<stop offset="0.6" stop-color="#FEFBA5"/>
<stop offset="0.66" stop-color="#FAF096"/>
<stop offset="0.72" stop-color="#F3DD7D"/>
<stop offset="0.79" stop-color="#EAC45A"/>
<stop offset="0.84" stop-color="#E1AB39"/>
<stop offset="0.89" stop-color="#D7A136"/>
<stop offset="0.96" stop-color="#BD882D"/>
<stop offset="1" stop-color="#AC7828"/>
</linearGradient>
<linearGradient id="paint30_linear_12_21" x1="102.096" y1="172.086" x2="209.238" y2="372.605" gradientUnits="userSpaceOnUse">
<stop stop-color="#F2D977"/>
<stop offset="0.04" stop-color="#E8CB65"/>
<stop offset="0.1" stop-color="#DAB74C"/>
<stop offset="0.16" stop-color="#D2AB3D"/>
<stop offset="0.21" stop-color="#CFA738"/>
<stop offset="0.34" stop-color="#E1C863"/>
<stop offset="0.56" stop-color="#FFFFAA"/>
<stop offset="0.6" stop-color="#FEFBA5"/>
<stop offset="0.66" stop-color="#FAF096"/>
<stop offset="0.72" stop-color="#F3DD7D"/>
<stop offset="0.79" stop-color="#EAC45A"/>
<stop offset="0.84" stop-color="#E1AB39"/>
<stop offset="0.89" stop-color="#D7A136"/>
<stop offset="0.96" stop-color="#BD882D"/>
<stop offset="1" stop-color="#AC7828"/>
</linearGradient>
<linearGradient id="paint31_linear_12_21" x1="95.9569" y1="175.367" x2="203.099" y2="375.886" gradientUnits="userSpaceOnUse">
<stop stop-color="#F2D977"/>
<stop offset="0.04" stop-color="#E8CB65"/>
<stop offset="0.1" stop-color="#DAB74C"/>
<stop offset="0.16" stop-color="#D2AB3D"/>
<stop offset="0.21" stop-color="#CFA738"/>
<stop offset="0.34" stop-color="#E1C863"/>
<stop offset="0.56" stop-color="#FFFFAA"/>
<stop offset="0.6" stop-color="#FEFBA5"/>
<stop offset="0.66" stop-color="#FAF096"/>
<stop offset="0.72" stop-color="#F3DD7D"/>
<stop offset="0.79" stop-color="#EAC45A"/>
<stop offset="0.84" stop-color="#E1AB39"/>
<stop offset="0.89" stop-color="#D7A136"/>
<stop offset="0.96" stop-color="#BD882D"/>
<stop offset="1" stop-color="#AC7828"/>
</linearGradient>
<linearGradient id="paint32_linear_12_21" x1="89.6845" y1="178.719" x2="196.826" y2="379.234" gradientUnits="userSpaceOnUse">
<stop stop-color="#F2D977"/>
<stop offset="0.04" stop-color="#E8CB65"/>
<stop offset="0.1" stop-color="#DAB74C"/>
<stop offset="0.16" stop-color="#D2AB3D"/>
<stop offset="0.21" stop-color="#CFA738"/>
<stop offset="0.34" stop-color="#E1C863"/>
<stop offset="0.56" stop-color="#FFFFAA"/>
<stop offset="0.6" stop-color="#FEFBA5"/>
<stop offset="0.66" stop-color="#FAF096"/>
<stop offset="0.72" stop-color="#F3DD7D"/>
<stop offset="0.79" stop-color="#EAC45A"/>
<stop offset="0.84" stop-color="#E1AB39"/>
<stop offset="0.89" stop-color="#D7A136"/>
<stop offset="0.96" stop-color="#BD882D"/>
<stop offset="1" stop-color="#AC7828"/>
</linearGradient>
<linearGradient id="paint33_linear_12_21" x1="162.038" y1="150.896" x2="178.597" y2="150.896" gradientUnits="userSpaceOnUse">
<stop stop-color="#E9C156"/>
<stop offset="0.01" stop-color="#CFA549"/>
<stop offset="0.04" stop-color="#A87B34"/>
<stop offset="0.06" stop-color="#885924"/>
<stop offset="0.08" stop-color="#724118"/>
<stop offset="0.1" stop-color="#653311"/>
<stop offset="0.12" stop-color="#602E0F"/>
<stop offset="0.17" stop-color="#784517"/>
<stop offset="0.27" stop-color="#B5812B"/>
<stop offset="0.33" stop-color="#E1AB39"/>
<stop offset="0.34" stop-color="#E3B141"/>
<stop offset="0.38" stop-color="#EDCD66"/>
<stop offset="0.41" stop-color="#F5E384"/>
<stop offset="0.45" stop-color="#FBF299"/>
<stop offset="0.49" stop-color="#FEFCA6"/>
<stop offset="0.52" stop-color="#FFFFAA"/>
<stop offset="0.54" stop-color="#FDFAA3"/>
<stop offset="0.57" stop-color="#F8EC90"/>
<stop offset="0.61" stop-color="#F0D470"/>
<stop offset="0.65" stop-color="#E4B445"/>
<stop offset="0.66" stop-color="#E1AB39"/>
<stop offset="0.7" stop-color="#C48F30"/>
<stop offset="0.79" stop-color="#8E5B1E"/>
<stop offset="0.85" stop-color="#6D3A13"/>
<stop offset="0.89" stop-color="#602E0F"/>
<stop offset="0.91" stop-color="#643311"/>
<stop offset="0.92" stop-color="#724118"/>
<stop offset="0.94" stop-color="#875823"/>
<stop offset="0.96" stop-color="#A57933"/>
<stop offset="0.99" stop-color="#CCA247"/>
<stop offset="1" stop-color="#E9C156"/>
</linearGradient>
<linearGradient id="paint34_linear_12_21" x1="151.492" y1="164.48" x2="188.504" y2="164.48" gradientUnits="userSpaceOnUse">
<stop stop-color="#E9C156"/>
<stop offset="0.01" stop-color="#CFA549"/>
<stop offset="0.04" stop-color="#A87B34"/>
<stop offset="0.06" stop-color="#885924"/>
<stop offset="0.08" stop-color="#724118"/>
<stop offset="0.1" stop-color="#653311"/>
<stop offset="0.12" stop-color="#602E0F"/>
<stop offset="0.17" stop-color="#784517"/>
<stop offset="0.27" stop-color="#B5812B"/>
<stop offset="0.33" stop-color="#E1AB39"/>
<stop offset="0.34" stop-color="#E3B141"/>
<stop offset="0.38" stop-color="#EDCD66"/>
<stop offset="0.41" stop-color="#F5E384"/>
<stop offset="0.45" stop-color="#FBF299"/>
<stop offset="0.49" stop-color="#FEFCA6"/>
<stop offset="0.52" stop-color="#FFFFAA"/>
<stop offset="0.54" stop-color="#FDFAA3"/>
<stop offset="0.57" stop-color="#F8EC90"/>
<stop offset="0.61" stop-color="#F0D470"/>
<stop offset="0.65" stop-color="#E4B445"/>
<stop offset="0.66" stop-color="#E1AB39"/>
<stop offset="0.7" stop-color="#C48F30"/>
<stop offset="0.79" stop-color="#8E5B1E"/>
<stop offset="0.85" stop-color="#6D3A13"/>
<stop offset="0.89" stop-color="#602E0F"/>
<stop offset="0.91" stop-color="#643311"/>
<stop offset="0.92" stop-color="#724118"/>
<stop offset="0.94" stop-color="#875823"/>
<stop offset="0.96" stop-color="#A57933"/>
<stop offset="0.99" stop-color="#CCA247"/>
<stop offset="1" stop-color="#E9C156"/>
</linearGradient>
<radialGradient id="paint35_radial_12_21" cx="0" cy="0" r="1" gradientUnits="userSpaceOnUse" gradientTransform="translate(249.009 250.398) scale(70.8203)">
<stop offset="0.27" stop-color="#690B02"/>
<stop offset="0.39" stop-color="#8F4941"/>
<stop offset="0.51" stop-color="#B18079"/>
<stop offset="0.62" stop-color="#CDADA8"/>
<stop offset="0.73" stop-color="#E3D1CD"/>
<stop offset="0.84" stop-color="#F2EAE7"/>
<stop offset="0.93" stop-color="#FCFAF6"/>
<stop offset="1" stop-color="#FFFFFC"/>
</radialGradient>
<radialGradient id="paint36_radial_12_21" cx="0" cy="0" r="1" gradientUnits="userSpaceOnUse" gradientTransform="translate(164.262 351.38) rotate(4.18001) scale(70.8203 70.8203)">
<stop offset="0.27" stop-color="#690B02"/>
<stop offset="0.39" stop-color="#8F4941"/>
<stop offset="0.51" stop-color="#B18079"/>
<stop offset="0.62" stop-color="#CDADA8"/>
<stop offset="0.73" stop-color="#E3D1CD"/>
<stop offset="0.84" stop-color="#F2EAE7"/>
<stop offset="0.93" stop-color="#FCFAF6"/>
<stop offset="1" stop-color="#FFFFFC"/>
</radialGradient>
<linearGradient id="paint37_linear_12_21" x1="239.095" y1="223.196" x2="258.601" y2="126.651" gradientUnits="userSpaceOnUse">
<stop stop-color="#C3852F"/>
<stop offset="0.07" stop-color="#DBAD50"/>
<stop offset="0.13" stop-color="#EECC69"/>
<stop offset="0.18" stop-color="#F9DF78"/>
<stop offset="0.22" stop-color="#FDE67E"/>
<stop offset="0.31" stop-color="#FAE27B"/>
<stop offset="0.39" stop-color="#F2D772"/>
<stop offset="0.48" stop-color="#E4C362"/>
<stop offset="0.56" stop-color="#D1A84D"/>
<stop offset="0.61" stop-color="#C1933C"/>
<stop offset="0.62" stop-color="#BE8F39"/>
<stop offset="0.71" stop-color="#A26B1F"/>
<stop offset="0.79" stop-color="#915410"/>
<stop offset="0.83" stop-color="#8B4C0A"/>
<stop offset="0.9" stop-color="#9A5F09"/>
<stop offset="1" stop-color="#AA7307"/>
</linearGradient>
<linearGradient id="paint38_linear_12_21" x1="317.303" y1="137.389" x2="227.443" y2="258.748" gradientUnits="userSpaceOnUse">
<stop stop-color="#C3852F"/>
<stop offset="0.07" stop-color="#DBAD50"/>
<stop offset="0.13" stop-color="#EECC69"/>
<stop offset="0.18" stop-color="#F9DF78"/>
<stop offset="0.22" stop-color="#FDE67E"/>
<stop offset="0.31" stop-color="#FAE27B"/>
<stop offset="0.39" stop-color="#F2D772"/>
<stop offset="0.48" stop-color="#E4C362"/>
<stop offset="0.56" stop-color="#D1A84D"/>
<stop offset="0.61" stop-color="#C1933C"/>
<stop offset="0.62" stop-color="#BE8F39"/>
<stop offset="0.71" stop-color="#A26B1F"/>
<stop offset="0.79" stop-color="#915410"/>
<stop offset="0.83" stop-color="#8B4C0A"/>
<stop offset="0.9" stop-color="#9A5F09"/>
<stop offset="1" stop-color="#AA7307"/>
</linearGradient>
<linearGradient id="paint39_linear_12_21" x1="190.069" y1="59.9005" x2="331.939" y2="363.103" gradientUnits="userSpaceOnUse">
<stop stop-color="#C3852F"/>
<stop offset="0.07" stop-color="#DBAD50"/>
<stop offset="0.13" stop-color="#EECC69"/>
<stop offset="0.18" stop-color="#F9DF78"/>
<stop offset="0.22" stop-color="#FDE67E"/>
<stop offset="0.31" stop-color="#FAE27B"/>
<stop offset="0.39" stop-color="#F2D772"/>
<stop offset="0.48" stop-color="#E4C362"/>
<stop offset="0.56" stop-color="#D1A84D"/>
<stop offset="0.61" stop-color="#C1933C"/>
<stop offset="0.62" stop-color="#BE8F39"/>
<stop offset="0.71" stop-color="#A26B1F"/>
<stop offset="0.79" stop-color="#915410"/>
<stop offset="0.83" stop-color="#8B4C0A"/>
<stop offset="0.9" stop-color="#9A5F09"/>
<stop offset="1" stop-color="#AA7307"/>
</linearGradient>
<linearGradient id="paint40_linear_12_21" x1="215.66" y1="48.3453" x2="356.663" y2="349.696" gradientUnits="userSpaceOnUse">
<stop stop-color="#EABD54"/>
<stop offset="0.06" stop-color="#F0CB66"/>
<stop offset="0.18" stop-color="#FBE485"/>
<stop offset="0.25" stop-color="#FFED91"/>
<stop offset="0.43" stop-color="#FEEC8F"/>
<stop offset="0.5" stop-color="#FCE688"/>
<stop offset="0.54" stop-color="#F8DD7D"/>
<stop offset="0.58" stop-color="#F2D06C"/>
<stop offset="0.61" stop-color="#EABD54"/>
<stop offset="0.66" stop-color="#D9AA45"/>
<stop offset="0.81" stop-color="#9F6D13"/>
<stop offset="0.88" stop-color="#895500"/>
<stop offset="0.89" stop-color="#936009"/>
<stop offset="0.94" stop-color="#C29231"/>
<stop offset="0.98" stop-color="#DFB14B"/>
<stop offset="1" stop-color="#EABD54"/>
</linearGradient>
<linearGradient id="paint41_linear_12_21" x1="202.328" y1="108.887" x2="289.123" y2="294.38" gradientUnits="userSpaceOnUse">
<stop stop-color="#EABD54"/>
<stop offset="0.06" stop-color="#F0CB66"/>
<stop offset="0.18" stop-color="#FBE485"/>
<stop offset="0.25" stop-color="#FFED91"/>
<stop offset="0.43" stop-color="#FEEC8F"/>
<stop offset="0.5" stop-color="#FCE688"/>
<stop offset="0.54" stop-color="#F8DD7D"/>
<stop offset="0.58" stop-color="#F2D06C"/>
<stop offset="0.61" stop-color="#EABD54"/>
<stop offset="0.66" stop-color="#D9AA45"/>
<stop offset="0.81" stop-color="#9F6D13"/>
<stop offset="0.88" stop-color="#895500"/>
<stop offset="0.89" stop-color="#936009"/>
<stop offset="0.94" stop-color="#C29231"/>
<stop offset="0.98" stop-color="#DFB14B"/>
<stop offset="1" stop-color="#EABD54"/>
</linearGradient>
<linearGradient id="paint42_linear_12_21" x1="166.072" y1="383.721" x2="233.346" y2="399.203" gradientUnits="userSpaceOnUse">
<stop stop-color="#C3852F"/>
<stop offset="0.07" stop-color="#DBAD50"/>
<stop offset="0.13" stop-color="#EECC69"/>
<stop offset="0.18" stop-color="#F9DF78"/>
<stop offset="0.22" stop-color="#FDE67E"/>
<stop offset="0.31" stop-color="#FAE27B"/>
<stop offset="0.39" stop-color="#F2D772"/>
<stop offset="0.48" stop-color="#E4C362"/>
<stop offset="0.56" stop-color="#D1A84D"/>
<stop offset="0.61" stop-color="#C1933C"/>
<stop offset="0.62" stop-color="#BE8F39"/>
<stop offset="0.71" stop-color="#A26B1F"/>
<stop offset="0.79" stop-color="#915410"/>
<stop offset="0.83" stop-color="#8B4C0A"/>
<stop offset="0.9" stop-color="#9A5F09"/>
<stop offset="1" stop-color="#AA7307"/>
</linearGradient>
<linearGradient id="paint43_linear_12_21" x1="322.503" y1="328.601" x2="224.65" y2="464.664" gradientUnits="userSpaceOnUse">
<stop stop-color="#C3852F"/>
<stop offset="0.07" stop-color="#DBAD50"/>
<stop offset="0.13" stop-color="#EECC69"/>
<stop offset="0.18" stop-color="#F9DF78"/>
<stop offset="0.22" stop-color="#FDE67E"/>
<stop offset="0.31" stop-color="#FAE27B"/>
<stop offset="0.39" stop-color="#F2D772"/>
<stop offset="0.48" stop-color="#E4C362"/>
<stop offset="0.56" stop-color="#D1A84D"/>
<stop offset="0.61" stop-color="#C1933C"/>
<stop offset="0.62" stop-color="#BE8F39"/>
<stop offset="0.71" stop-color="#A26B1F"/>
<stop offset="0.79" stop-color="#915410"/>
<stop offset="0.83" stop-color="#8B4C0A"/>
<stop offset="0.9" stop-color="#9A5F09"/>
<stop offset="1" stop-color="#AA7307"/>
</linearGradient>
<linearGradient id="paint44_linear_12_21" x1="221.706" y1="233.711" x2="218.69" y2="433.274" gradientUnits="userSpaceOnUse">
<stop stop-color="#C3852F"/>
<stop offset="0.07" stop-color="#DBAD50"/>
<stop offset="0.13" stop-color="#EECC69"/>
<stop offset="0.18" stop-color="#F9DF78"/>
<stop offset="0.22" stop-color="#FDE67E"/>
<stop offset="0.31" stop-color="#FAE27B"/>
<stop offset="0.39" stop-color="#F2D772"/>
<stop offset="0.48" stop-color="#E4C362"/>
<stop offset="0.56" stop-color="#D1A84D"/>
<stop offset="0.61" stop-color="#C1933C"/>
<stop offset="0.62" stop-color="#BE8F39"/>
<stop offset="0.71" stop-color="#A26B1F"/>
<stop offset="0.79" stop-color="#915410"/>
<stop offset="0.83" stop-color="#8B4C0A"/>
<stop offset="0.9" stop-color="#9A5F09"/>
<stop offset="1" stop-color="#AA7307"/>
</linearGradient>
<linearGradient id="paint45_linear_12_21" x1="238.676" y1="336.52" x2="236.222" y2="409.343" gradientUnits="userSpaceOnUse">
<stop stop-color="#C3852F"/>
<stop offset="0.07" stop-color="#DBAD50"/>
<stop offset="0.13" stop-color="#EECC69"/>
<stop offset="0.18" stop-color="#F9DF78"/>
<stop offset="0.22" stop-color="#FDE67E"/>
<stop offset="0.31" stop-color="#FAE27B"/>
<stop offset="0.39" stop-color="#F2D772"/>
<stop offset="0.48" stop-color="#E4C362"/>
<stop offset="0.56" stop-color="#D1A84D"/>
<stop offset="0.61" stop-color="#C1933C"/>
<stop offset="0.62" stop-color="#BE8F39"/>
<stop offset="0.71" stop-color="#A26B1F"/>
<stop offset="0.79" stop-color="#915410"/>
<stop offset="0.83" stop-color="#8B4C0A"/>
<stop offset="0.9" stop-color="#9A5F09"/>
<stop offset="1" stop-color="#AA7307"/>
</linearGradient>
<linearGradient id="paint46_linear_12_21" x1="303.702" y1="315.083" x2="205.849" y2="451.145" gradientUnits="userSpaceOnUse">
<stop stop-color="#C3852F"/>
<stop offset="0.07" stop-color="#DBAD50"/>
<stop offset="0.13" stop-color="#EECC69"/>
<stop offset="0.18" stop-color="#F9DF78"/>
<stop offset="0.22" stop-color="#FDE67E"/>
<stop offset="0.31" stop-color="#FAE27B"/>
<stop offset="0.39" stop-color="#F2D772"/>
<stop offset="0.48" stop-color="#E4C362"/>
<stop offset="0.56" stop-color="#D1A84D"/>
<stop offset="0.61" stop-color="#C1933C"/>
<stop offset="0.62" stop-color="#BE8F39"/>
<stop offset="0.71" stop-color="#A26B1F"/>
<stop offset="0.79" stop-color="#915410"/>
<stop offset="0.83" stop-color="#8B4C0A"/>
<stop offset="0.9" stop-color="#9A5F09"/>
<stop offset="1" stop-color="#AA7307"/>
</linearGradient>
<linearGradient id="paint47_linear_12_21" x1="258.945" y1="372.711" x2="273.47" y2="504.171" gradientUnits="userSpaceOnUse">
<stop stop-color="#C3852F"/>
<stop offset="0.07" stop-color="#DBAD50"/>
<stop offset="0.13" stop-color="#EECC69"/>
<stop offset="0.18" stop-color="#F9DF78"/>
<stop offset="0.22" stop-color="#FDE67E"/>
<stop offset="0.31" stop-color="#FAE27B"/>
<stop offset="0.39" stop-color="#F2D772"/>
<stop offset="0.48" stop-color="#E4C362"/>
<stop offset="0.56" stop-color="#D1A84D"/>
<stop offset="0.61" stop-color="#C1933C"/>
<stop offset="0.62" stop-color="#BE8F39"/>
<stop offset="0.71" stop-color="#A26B1F"/>
<stop offset="0.79" stop-color="#915410"/>
<stop offset="0.83" stop-color="#8B4C0A"/>
<stop offset="0.9" stop-color="#9A5F09"/>
<stop offset="1" stop-color="#AA7307"/>
</linearGradient>
<linearGradient id="paint48_linear_12_21" x1="282.11" y1="337.484" x2="244.104" y2="443.182" gradientUnits="userSpaceOnUse">
<stop stop-color="#C3852F"/>
<stop offset="0.07" stop-color="#DBAD50"/>
<stop offset="0.13" stop-color="#EECC69"/>
<stop offset="0.18" stop-color="#F9DF78"/>
<stop offset="0.22" stop-color="#FDE67E"/>
<stop offset="0.31" stop-color="#FAE27B"/>
<stop offset="0.39" stop-color="#F2D772"/>
<stop offset="0.48" stop-color="#E4C362"/>
<stop offset="0.56" stop-color="#D1A84D"/>
<stop offset="0.61" stop-color="#C1933C"/>
<stop offset="0.62" stop-color="#BE8F39"/>
<stop offset="0.71" stop-color="#A26B1F"/>
<stop offset="0.79" stop-color="#915410"/>
<stop offset="0.83" stop-color="#8B4C0A"/>
<stop offset="0.9" stop-color="#9A5F09"/>
<stop offset="1" stop-color="#AA7307"/>
</linearGradient>
<linearGradient id="paint49_linear_12_21" x1="250.933" y1="228.618" x2="236.117" y2="363.266" gradientUnits="userSpaceOnUse">
<stop stop-color="#C3852F"/>
<stop offset="0.07" stop-color="#DBAD50"/>
<stop offset="0.13" stop-color="#EECC69"/>
<stop offset="0.18" stop-color="#F9DF78"/>
<stop offset="0.22" stop-color="#FDE67E"/>
<stop offset="0.31" stop-color="#FAE27B"/>
<stop offset="0.39" stop-color="#F2D772"/>
<stop offset="0.48" stop-color="#E4C362"/>
<stop offset="0.56" stop-color="#D1A84D"/>
<stop offset="0.61" stop-color="#C1933C"/>
<stop offset="0.62" stop-color="#BE8F39"/>
<stop offset="0.71" stop-color="#A26B1F"/>
<stop offset="0.79" stop-color="#915410"/>
<stop offset="0.83" stop-color="#8B4C0A"/>
<stop offset="0.9" stop-color="#9A5F09"/>
<stop offset="1" stop-color="#AA7307"/>
</linearGradient>
<linearGradient id="paint50_linear_12_21" x1="154.127" y1="444.692" x2="305.635" y2="288.338" gradientUnits="userSpaceOnUse">
<stop stop-color="#C3852F"/>
<stop offset="0.07" stop-color="#DBAD50"/>
<stop offset="0.13" stop-color="#EECC69"/>
<stop offset="0.18" stop-color="#F9DF78"/>
<stop offset="0.22" stop-color="#FDE67E"/>
<stop offset="0.31" stop-color="#FAE27B"/>
<stop offset="0.39" stop-color="#F2D772"/>
<stop offset="0.48" stop-color="#E4C362"/>
<stop offset="0.56" stop-color="#D1A84D"/>
<stop offset="0.61" stop-color="#C1933C"/>
<stop offset="0.62" stop-color="#BE8F39"/>
<stop offset="0.71" stop-color="#A26B1F"/>
<stop offset="0.79" stop-color="#915410"/>
<stop offset="0.83" stop-color="#8B4C0A"/>
<stop offset="0.9" stop-color="#9A5F09"/>
<stop offset="1" stop-color="#AA7307"/>
</linearGradient>
<linearGradient id="paint51_linear_12_21" x1="261.071" y1="307.468" x2="116.285" y2="425.887" gradientUnits="userSpaceOnUse">
<stop stop-color="#C3852F"/>
<stop offset="0.07" stop-color="#DBAD50"/>
<stop offset="0.13" stop-color="#EECC69"/>
<stop offset="0.18" stop-color="#F9DF78"/>
<stop offset="0.22" stop-color="#FDE67E"/>
<stop offset="0.31" stop-color="#FAE27B"/>
<stop offset="0.39" stop-color="#F2D772"/>
<stop offset="0.48" stop-color="#E4C362"/>
<stop offset="0.56" stop-color="#D1A84D"/>
<stop offset="0.61" stop-color="#C1933C"/>
<stop offset="0.62" stop-color="#BE8F39"/>
<stop offset="0.71" stop-color="#A26B1F"/>
<stop offset="0.79" stop-color="#915410"/>
<stop offset="0.83" stop-color="#8B4C0A"/>
<stop offset="0.9" stop-color="#9A5F09"/>
<stop offset="1" stop-color="#AA7307"/>
</linearGradient>
<linearGradient id="paint52_linear_12_21" x1="295.036" y1="348.999" x2="150.26" y2="467.409" gradientUnits="userSpaceOnUse">
<stop stop-color="#C3852F"/>
<stop offset="0.07" stop-color="#DBAD50"/>
<stop offset="0.13" stop-color="#EECC69"/>
<stop offset="0.18" stop-color="#F9DF78"/>
<stop offset="0.22" stop-color="#FDE67E"/>
<stop offset="0.31" stop-color="#FAE27B"/>
<stop offset="0.39" stop-color="#F2D772"/>
<stop offset="0.48" stop-color="#E4C362"/>
<stop offset="0.56" stop-color="#D1A84D"/>
<stop offset="0.61" stop-color="#C1933C"/>
<stop offset="0.62" stop-color="#BE8F39"/>
<stop offset="0.71" stop-color="#A26B1F"/>
<stop offset="0.79" stop-color="#915410"/>
<stop offset="0.83" stop-color="#8B4C0A"/>
<stop offset="0.9" stop-color="#9A5F09"/>
<stop offset="1" stop-color="#AA7307"/>
</linearGradient>
<linearGradient id="paint53_linear_12_21" x1="314.168" y1="372.39" x2="169.388" y2="490.802" gradientUnits="userSpaceOnUse">
<stop stop-color="#C3852F"/>
<stop offset="0.07" stop-color="#DBAD50"/>
<stop offset="0.13" stop-color="#EECC69"/>
<stop offset="0.18" stop-color="#F9DF78"/>
<stop offset="0.22" stop-color="#FDE67E"/>
<stop offset="0.31" stop-color="#FAE27B"/>
<stop offset="0.39" stop-color="#F2D772"/>
<stop offset="0.48" stop-color="#E4C362"/>
<stop offset="0.56" stop-color="#D1A84D"/>
<stop offset="0.61" stop-color="#C1933C"/>
<stop offset="0.62" stop-color="#BE8F39"/>
<stop offset="0.71" stop-color="#A26B1F"/>
<stop offset="0.79" stop-color="#915410"/>
<stop offset="0.83" stop-color="#8B4C0A"/>
<stop offset="0.9" stop-color="#9A5F09"/>
<stop offset="1" stop-color="#AA7307"/>
</linearGradient>
<clipPath id="clip0_12_21">
<rect width="319.83" height="464.662" fill="white"/>
</clipPath>
</defs>
</svg>
